<?xml version="1.0" encoding="UTF-8"?>
<svg id="Capa_2" data-name="Capa 2" xmlns="http://www.w3.org/2000/svg" viewBox="0 0 586.53 655.15">
  <defs>
    <style>
      .cls-1, .cls-2, .cls-3, .cls-4 {
        stroke-width: 0px;
      }

      .cls-1, .cls-5, .cls-6, .cls-7 {
        fill: #e52421;
      }

      .cls-2 {
        fill: #e52424;
      }

      .cls-5 {
        font-family: FairwaterScript-Regular, 'Fairwater Script';
        font-size: 68.92px;
      }

      .cls-3 {
        fill: #e52521;
      }

      .cls-6 {
        stroke-width: .97px;
      }

      .cls-6, .cls-7 {
        stroke: #e52421;
        stroke-miterlimit: 10;
      }

      .cls-4 {
        fill: #ef7b80;
      }

      .cls-7 {
        stroke-width: 1.06px;
      }
    </style>
  </defs>
  <g id="Capa_2-2" data-name="Capa 2">
    <g>
      <path class="cls-4" d="M244.29,249.54c1.56,2.91,3.54,7.4,4.48,13.18.63,3.85,2.09,12.82-2.35,21.8-6.12,12.39-19.14,16.07-21.5,16.69,3.77.13,13.34-.05,23.01-6.16,3.13-1.98,12.82-8.31,16.47-21.09,4.02-14.04-2.2-25.59-3.49-27.87-5.54,1.15-11.09,2.3-16.63,3.45Z"/>
      <path class="cls-1" d="M40.98,412.53c-.12-.86.03.27-.03-.23-.02-.15-.04-.3-.05-.45-.04-.31-.07-.63-.1-.94-.1-1.04-.17-2.08-.21-3.13-.12-2.93-.06-5.86.18-8.78.52-6.37,2.03-12.73,4.46-18.65,2.26-5.52,5.58-10.84,9.85-15.05,2.15-2.12,4.52-3.91,7.16-5.37,2.13-1.18,4.38-2.13,6.58-3.18,10.51-5.01,18.09-14.51,23.08-24.83.78-1.61,1.49-3.25,2.15-4.91.19-.47.37-.95.56-1.42.12-.29.24-.58.35-.87.27-.66-.33.76-.04.1.11-.24.21-.49.32-.73,1.49-3.35,3.23-6.59,5.11-9.73,3.03-5.06,6.43-9.9,10-14.59,2.1-2.76,4.44-5.63,6.74-8.36,1.47-1.75,2.69-3.5,3.88-5.45,1.09-1.79,2.18-3.58,3.27-5.37.95-1.57.34-3.73-1.22-4.65s-3.69-.35-4.65,1.22c-1.84,3.02-3.5,6.38-5.78,9.08s-4.43,5.36-6.56,8.1c-3.52,4.54-6.91,9.19-9.98,14.05-2.15,3.41-4.15,6.91-5.88,10.55-.76,1.59-1.46,3.22-2.11,4.85-.19.47-.37.95-.56,1.42-.11.28-.23.56-.34.84-.08.21-.15.55.13-.31-.08.26-.22.51-.33.75-4.39,9.9-10.95,19.13-20.72,23.98-2.17,1.07-4.41,1.99-6.55,3.12-2.81,1.47-5.41,3.31-7.8,5.4-4.98,4.37-8.9,10.03-11.69,16.02-5.68,12.18-7.64,26.04-5.77,39.33.25,1.82,2.57,2.81,4.18,2.37,1.96-.54,2.63-2.35,2.37-4.18h0Z"/>
      <path class="cls-1" d="M40.64,435.13c3.54,8.05,10.01,15,18.5,17.76,5.61,1.82,11.59,1.47,17.28.27,2.81-.59,5.5-1.62,8.08-2.87,1.01-.49,2-1.02,3-1.54.44-.23.89-.46,1.34-.67.27-.13.55-.25.82-.39.89-.43-.62.22.32-.14,5.89-2.26,11.71-1.79,17.51.36,1.72.64,3.72-.71,4.18-2.37.52-1.9-.65-3.54-2.37-4.18-5.61-2.08-11.74-2.71-17.61-1.44-2.43.53-4.74,1.51-6.95,2.62-.95.48-1.88.98-2.82,1.46-.47.24-.94.47-1.42.7-.25.12-.5.23-.75.34-.21.09-.2.09.03-.01-.21.09-.43.17-.65.26-2.29.88-4.67,1.41-7.09,1.79-.11.02-1.05.15-.28.05-.27.03-.54.07-.81.09-.65.07-1.3.12-1.95.14-1.48.06-3,.04-4.47-.16-5.03-.7-9-3.07-12.36-6.64-.42-.44-.82-.9-1.21-1.37-.16-.19-.31-.38-.46-.57.47.59-.16-.21-.24-.33-.61-.84-1.18-1.71-1.72-2.6-.76-1.28-1.44-2.61-2.04-3.98-.74-1.68-3.19-2.07-4.65-1.22-1.73,1.01-1.96,2.96-1.22,4.65h0Z"/>
      <path class="cls-1" d="M213.15,409.52c-.22-1.03-.35-2.14-.68-3.14-.21-.64-.53-.99-.92-1.55-.21-.31.52.72.2.26-.18-.26-.36-.51-.53-.78-.2-.32-.36-.65-.53-.98-.29-.56.13.42,0,0-.07-.21-.15-.42-.22-.63-.14-.46-.24-.92-.32-1.4.08.47.04.25.02-.09-.01-.23-.02-.46-.02-.69,0-.18,0-.36.02-.53,0-.13.02-.26.03-.39.03-.26.02-.17-.04.27.14-.1.21-.99.27-1.19.03-.12.39-1.05.36-1.07.03.02-.33.71-.09.23.07-.15.14-.3.22-.45.25-.5.54-.99.86-1.45.1-.14.59-.79.12-.19-.44.56-.09.12.01,0,1.14-1.36,1.43-3.49,0-4.8-1.26-1.15-3.58-1.45-4.8,0-1.76,2.1-3.12,4.63-3.53,7.37-.63,4.21.55,8.09,3.21,11.37l-.87-1.5c.23,1.05.46,2.1.68,3.14.38,1.74,2.5,2.91,4.18,2.37,1.83-.59,2.78-2.31,2.37-4.18h0Z"/>
      <path class="cls-1" d="M107.49,447.91c7.55,2.74,15.25,5.03,23.06,6.91,8.67,2.08,17.37,4.22,26.24,5.29,12.64,1.53,25.14-.45,36.3-6.65,8.03-4.47,15-10.74,20.76-17.86,1.15-1.42,1.39-3.41,0-4.8-1.19-1.19-3.64-1.43-4.8,0-5.05,6.24-10.71,11.57-17.35,15.61-1.3.79-2.64,1.54-4,2.23-.58.29-1.16.58-1.75.85-.28.13-.56.26-.84.38-.25.11-1.08.45-.36.16-1.94.77-3.89,1.49-5.91,2.05-1.37.38-2.75.71-4.14.98-.83.16-1.66.3-2.49.42.52-.07-.56.06-.7.08-.53.06-1.07.11-1.6.15-3.56.28-7.13.2-10.68-.13s-7.09-.92-10.94-1.68c-4.38-.87-8.74-1.9-13.08-2.94-8.77-2.09-17.42-4.51-25.9-7.59-1.72-.63-3.72.7-4.18,2.37-.52,1.89.64,3.55,2.37,4.18h0Z"/>
      <path class="cls-1" d="M50.8,446.73c1.08,10.89,4.49,21.58,10.27,30.9,8.33,13.41,21.28,23.34,36.35,27.98,10.01,3.08,20.82,3.94,31.21,2.75,11.64-1.33,22.96-5.39,32.8-11.77,13.03-8.44,23.45-21,27.43-36.19.43-1.65.78-3.31,1.06-4.99.3-1.81-.47-3.66-2.37-4.18-1.63-.45-3.87.55-4.18,2.37-1.2,7.23-3.81,13.98-7.85,20.09-1.87,2.84-3.72,5.12-6.19,7.69-1.2,1.25-2.45,2.45-3.75,3.6s-2.68,2.28-3.78,3.1c-9.55,7.12-20.27,11.65-32.08,13.36-.13.02-.26.04-.39.06-.49.07.95-.12.28-.04-.38.05-.77.1-1.15.14-.83.09-1.67.17-2.5.24-2.1.16-4.21.24-6.32.24-2.55,0-5.11-.13-7.65-.39-.63-.06-1.26-.14-1.89-.22-.53-.06.55.08.02,0-.15-.02-.3-.04-.45-.06-.4-.06-.8-.12-1.2-.18-1.45-.23-2.89-.51-4.32-.84-13.53-3.07-25.87-10.54-34.26-21.82-2.15-2.89-4.04-5.96-5.67-9.17-.34-.68-.68-1.36-1-2.05-.17-.36-.33-.73-.5-1.09-.09-.21-.18-.41-.27-.62-.08-.18-.19-.45-.05-.11-.57-1.38-1.1-2.77-1.58-4.19-.85-2.49-1.55-5.03-2.11-7.6-.23-1.07-.44-2.14-.63-3.22-.07-.42-.14-.84-.2-1.27-.03-.21-.06-.42-.09-.63-.08-.49.11.89,0,.06-.08-.64-.15-1.29-.22-1.93-.18-1.82-1.43-3.4-3.4-3.4-1.7,0-3.58,1.56-3.4,3.4h0Z"/>
      <path class="cls-1" d="M175.3,477.46c7.2,10.8,16.47,20.12,27.41,27.14,8.93,5.73,18.48,10.66,28.85,13.18,11.6,2.82,23.93,2.5,35.16-1.73,9.29-3.5,17.99-8.99,24.52-16.54s10.36-16.11,12.39-25.38c1.3-5.91,1.7-11.99.59-17.96-1.19-6.4-4.5-12.28-9.31-16.66-9.84-8.94-25.92-13.53-37.68-5.48-10.1,6.92-15.31,20.59-10.27,32.08,1.88,4.28,4.9,8.11,8.79,10.73,5.16,3.48,12.01,4.07,17.89,2.23s11.04-6.5,12.12-12.95c1.18-7.04-1.66-14.63-9.08-16.7-3.97-1.11-8.16-.28-11.75,1.63-1.62.86-2.12,3.11-1.22,4.65.96,1.64,3.02,2.08,4.65,1.22.66-.35,1.24-.6,1.97-.82s1.42-.34,1.93-.37c1.5-.08,2.74.11,3.93.78.32.18.65.37.93.61-.48-.39.31.33.32.34.03.03.72.83.31.3.19.25.36.53.52.8s.31.56.44.84c-.29-.64.09.31.11.37.1.3.18.61.25.92.03.14.21,1.4.14.66.06.63.09,1.26.07,1.89,0,.19-.15,1.66-.04.94-.09.59-.21,1.17-.37,1.74-.08.27-.16.54-.25.81-.06.17-.12.34-.19.51.16-.36.15-.35-.03.03-.31.57-.61,1.12-.99,1.65.39-.56-.22.25-.26.3-.21.23-.43.46-.65.68s-.46.42-.7.63c-.74.64.51-.28-.32.23-.63.39-1.25.79-1.92,1.12-.05.02-1.01.44-.36.18-.3.12-.6.23-.9.34-.61.21-1.23.38-1.86.53-.31.07-.63.14-.94.19-.08.01-1.12.15-.36.07-.63.07-1.26.12-1.89.13s-1.24,0-1.86-.05c-.11,0-1.11-.12-.3-.01-.31-.04-.62-.1-.92-.16-.65-.13-1.3-.3-1.93-.52-.3-.1-.61-.21-.9-.33.64.27-.49-.26-.6-.31-.53-.28-1.05-.59-1.55-.93-.24-.16-.48-.33-.72-.51.61.46-.13-.12-.21-.19-.91-.78-1.7-1.65-2.48-2.55-.57-.66.4.57-.1-.13-.1-.14-.2-.27-.29-.41-.28-.39-.54-.79-.8-1.2-.48-.77-.92-1.57-1.32-2.38-.15-.31-.28-.62-.43-.93-.27-.55.31.82.12.27-.04-.12-.09-.23-.14-.35-.12-.3-.23-.61-.33-.92-.45-1.41-.62-2.37-.7-3.54-.04-.61-.06-1.23-.04-1.85,0-.37.03-.74.05-1.1,0-.13.16-1.38.09-.92.49-3.15,1.41-5.51,2.97-8.08.82-1.35,1.35-2.06,2.27-3.1.48-.53.98-1.05,1.5-1.53.26-.24.52-.48.79-.71.18-.15.36-.3.54-.45-.18.13-.18.13,0,0,2.47-1.86,4.6-2.8,7.52-3.4.35-.07.7-.14,1.06-.19-.64.1.52-.06.52-.06.71-.07,1.43-.1,2.14-.1s1.44.03,2.15.08c.36.03.72.06,1.07.11-.51-.06.76.13.88.15,1.31.24,2.6.57,3.87.98,1.65.54,2.45.87,3.89,1.59,2.69,1.34,4.98,2.88,6.93,4.63,2.17,1.95,3.62,3.67,5,6.11.34.61.66,1.23.96,1.87,0,0,.44,1.04.2.46.13.32.25.64.36.96.49,1.37.87,2.79,1.14,4.22.06.33.11.65.17.98.19,1.06-.05-.66.06.41.07.65.13,1.31.17,1.96.08,1.4.08,2.8,0,4.2-.06,1.15-.16,2.3-.31,3.44.1-.79-.04.22-.05.31-.05.3-.1.6-.15.9-.12.68-.25,1.36-.39,2.03-.46,2.17-1.06,4.3-1.76,6.4-.48,1.44-.92,3.1-1.67,4.44.59-1.06.09-.21-.04.08-.09.2-.18.4-.27.6-.43.96-.89,1.91-1.38,2.85-1.29,2.47-3.2,5.38-4.61,7.11-1.67,2.06-3.5,3.97-5.48,5.74-.93.83-1.88,1.63-2.86,2.39.58-.45-.21.15-.27.2-.24.18-.48.35-.72.53-.55.4-1.11.78-1.67,1.16-1.78,1.19-3.63,2.28-5.53,3.27-.84.44-1.69.86-2.55,1.26-.4.18-.8.37-1.2.54-.19.08-.39.17-.58.25.98-.43.09-.04-.12.04-2.89,1.18-5.86,2.13-8.91,2.8-6.1,1.36-13.13,1.49-19,.56-10.72-1.69-19.61-5.69-28.75-11.25-4.77-2.9-9.33-6.02-13.51-9.7-2.28-2.01-4.46-4.14-6.53-6.37-.93-1-1.84-2.03-2.72-3.08-.42-.49-.83-.99-1.23-1.49-.2-.24-.39-.48-.58-.73-.08-.1-.85-1.09-.39-.5-1.28-1.67-2.5-3.38-3.66-5.13-1.02-1.52-3-2.18-4.65-1.22-1.51.89-2.24,3.11-1.22,4.65h0Z"/>
      <path class="cls-1" d="M299.43,468.71c8.64,6.8,18.51,11.98,29.21,14.7,7.79,1.98,15.88,2.59,23.89,2.08,9.83-.62,19.6-2.81,28.45-7.21,10.49-5.22,18.78-13.79,23.89-24.3,5.66-11.64,8.51-25.77,3.87-38.24s-15.14-20.88-27.28-24.85c-10.88-3.56-23.61-3.11-32.83,4.26-10.6,8.47-15.76,25.25-7.46,36.98,4.08,5.77,10.29,9.93,17.36,10.86,4.57.6,9.31-.35,13.37-2.53,5.35-2.88,9.22-8.67,9.49-14.78.35-7.73-6.9-14.81-14.67-13.89-3.02.36-5.69,1.61-7.95,3.65-1.36,1.23-1.25,3.55,0,4.8,1.35,1.35,3.44,1.23,4.8,0,.1-.09.23-.18.33-.29.43-.48-.69.42-.04.03.47-.28.93-.58,1.4-.86.79-.47-.55.13.39-.18.34-.11.69-.2,1.03-.31.85-.26-.3-.05.63-.11.51-.03,1.04-.04,1.55.02-.45-.06.15.04.2.06.36.1.71.19,1.06.3s.83.41,1.45.78c.3.18.73.55,1.22,1.07s.64.7,1.11,1.56c.64,1.17.75,2.12.7,3.38-.04.79-.05.75-.29,1.64-.09.33-.19.65-.3.97-.07.2-.15.4-.23.6.15-.34.14-.34-.01,0-.34.66-.68,1.32-1.08,1.95-.49.77-.48.74-.97,1.28-.23.25-.47.49-.71.72-.09.08-1.05.89-.56.52-.97.74-2.05,1.32-3.15,1.83.69-.32-.53.19-.73.26-.55.19-1.11.35-1.68.5-.42.1-.84.2-1.27.28-.18.03-.37.06-.55.1-.44.08-.55-.13.26-.03-.52-.06-1.24.12-1.75.12-2.52.05-5.32-.65-7.49-1.77-2.67-1.37-4.43-2.87-6.45-5.18-3.5-4.01-4.53-9.93-3.29-15.2s4.23-10.21,8.59-13.88c.54-.45,1.39-1.07,2.43-1.68.46-.27.93-.53,1.41-.77.26-.13.53-.26.79-.38.18-.08.36-.16.54-.24-.36.15-.36.16,0,0,1.12-.4,2.23-.78,3.39-1.06.49-.12.97-.22,1.46-.32.3-.06.59-.1.89-.16.4-.06.4-.06,0,0,.2-.03.4-.05.6-.07,2.48-.27,4.98-.25,7.46,0,.32.03.63.07.95.11-.76-.1.29.05.36.06.64.1,1.27.22,1.9.35,1.27.27,2.53.59,3.78.97,2.9.89,4.49,1.56,7.09,2.94,1.07.57,2.12,1.19,3.14,1.85.56.36,1.1.73,1.64,1.12.27.19.53.39.8.59.32.24.35.27.1.07.17.14.34.27.52.41,2.05,1.67,3.87,3.54,5.56,5.55.68.81-.36-.51.27.34.19.26.39.52.57.79.38.54.74,1.08,1.09,1.64.79,1.27,1.73,3.07,2.18,4.14.56,1.36,1.01,2.77,1.38,4.19.34,1.32.71,3.24.79,4.09.28,2.96.3,5.92-.01,8.88-.13,1.19-.3,2.26-.61,3.79-.29,1.41-.64,2.81-1.04,4.19s-.83,2.69-1.32,4.01c-.24.64-.49,1.28-.75,1.92-.41,1.03.26-.57-.18.43-.13.3-.27.61-.41.91-1.05,2.31-2.24,4.57-3.58,6.73-1.51,2.42-2.68,4.01-4.48,6.02s-3.72,3.77-5.78,5.44c-.82.66.51-.37-.33.26-.26.19-.51.38-.77.57-.43.31-.86.61-1.3.91-1.12.76-2.28,1.47-3.46,2.13-.98.55-1.98,1.07-2.99,1.56-.54.26-1.09.52-1.65.77-.27.12-.55.24-.83.36.7-.3-.45.18-.57.23-2.16.86-4.37,1.59-6.6,2.21-2.11.58-4.25,1.07-6.41,1.46-1.02.18-2.04.34-3.06.49-.86.13.77-.09-.09.01-.25.03-.49.06-.73.09-.48.06-.96.11-1.44.16-5.9.59-11.95.65-17.84-.14-10.92-1.46-20.83-5.55-29.95-11.78-.76-.52-1.52-1.06-2.27-1.61-.33-.24-.66-.49-.99-.74-.18-.13-.74-.58.08.06-.14-.11-.28-.22-.43-.33-1.44-1.13-3.4-1.4-4.8,0-1.18,1.18-1.45,3.66,0,4.8h0Z"/>
      <path class="cls-1" d="M413.09,359.49c-.12-.34-.22-.68-.3-1.03-.02-.08-.16-1.01-.09-.33-.03-.24-.04-.48-.05-.73-.04-1.46.26-2.15.9-3.26.27-.47,1.18-1.31,1.75-1.66.24-.15.5-.28.75-.42.55-.29-.71.21.28-.13.27-.09.53-.18.81-.25.14-.04,1.23-.23.58-.15.57-.07,1.16-.08,1.73,0-.49-.06.08.03.15.05.33.09.65.18.98.28.1.03.58.27.1.03.28.14.56.29.83.45.17.1.34.22.51.33.57.33-.27-.29.34.25s1.12,1.08,1.65,1.67c.65.72-.26-.41.02,0,.31.47.65.92.93,1.41.17.29.31.59.47.88.04.07.27.59.07.1.22.52.4,1.06.55,1.6s.27,1.11.39,1.67c.22,1.06-.02-.61.07.47.03.35.06.7.07,1.05.02.59.02,1.18-.02,1.76-.02.3-.04.59-.07.88-.07.65.17-.77-.05.33-.12.58-.23,1.16-.4,1.74-.06.23-.13.46-.21.68-.04.13-.47,1.25-.3.86-1.86,4.26-5.07,6.49-9.44,7.33-.05.01-1.13.18-.4.08-.22.03-.44.05-.66.07-.55.05-1.1.07-1.65.08s-1.1-.01-1.65-.05c-.33-.02-.66-.05-.98-.09.6.06-.24-.04-.4-.06-1.06-.18-2.11-.44-3.13-.77-.5-.16-.99-.34-1.48-.54.56.23.07.03-.04-.02-.36-.18-.73-.35-1.08-.54-.54-.29-1.07-.61-1.58-.95-.61-.41-.44-.27-.99-.75-.84-.72-1.59-1.52-2.31-2.36-.66-.77.33.52-.24-.31-.12-.17-.24-.33-.35-.5-.28-.41-.54-.84-.79-1.27s-.47-.83-.68-1.26c-.12-.25-.24-.49-.36-.74-.06-.12-.39-.96-.08-.16-.54-1.39-1-2.8-1.31-4.25-.09-.41-.16-.83-.24-1.24-.18-1,.07.79.01.15-.1-1.1-.17-2.2-.15-3.3.01-.81.06-1.61.14-2.41.02-.15.13-1.04,0-.17.03-.19.05-.37.08-.55.09-.58.21-1.15.34-1.73,1.01-4.39,3.24-8.39,6.94-11.11,2.14-1.57,3.92-2.38,6.24-3.04,1.06-.3,2.13-.52,3.22-.69-.69.11.71-.08.94-.1.58-.05,1.16-.08,1.74-.1,1.64-.05,3.27.02,4.9.17,1.81.17,3.47.44,5.63,1.06,4.28,1.22,8.78,3.66,12.11,6.46,3.92,3.29,6.71,6.73,9.06,11.16,1.45,2.74,2.48,5.58,3.17,8.85.16.78.29,1.57.43,2.36.1.63,0,0,0-.11.04.28.07.56.1.83.06.54.11,1.08.15,1.62.16,2.29.14,4.6-.1,6.89-.08.76-.05.56-.17,1.31-.1.63-.23,1.26-.36,1.89-.32,1.44-.73,2.87-1.23,4.26-.96,2.66-2.42,5.28-4.14,7.62-1.29,1.76-3.19,3.7-5.02,5.24-.22.19-.45.37-.68.55-.86.7.25-.18-.26.2-.45.33-.9.65-1.36.96-.91.61-1.85,1.18-2.8,1.71-.83.46-1.68.89-2.54,1.28-.2.09-1.46.61-.62.28-.44.17-.88.36-1.33.52-1.2.45-2.42.84-3.65,1.18-2.48.69-4.87,1.14-7.4,1.29-1.37.08-2.74.09-4.1.04-.65-.03-1.3-.07-1.95-.13-.76-.07-1.36-.14-1.71-.2-2.32-.38-4.6-.91-6.84-1.63-.9-.29-1.78-.61-2.66-.95-.16-.06-.32-.13-.48-.19-.8-.31.66.3-.09-.04-.41-.18-.81-.36-1.22-.55-.93-.44-1.84-.91-2.73-1.41-1.6-.9-3.71-.38-4.65,1.22s-.38,3.74,1.22,4.65c8.18,4.62,18,6.88,27.36,5.8,9.49-1.1,18.78-5.04,25.58-11.88,8.86-8.92,12.07-21.44,10.32-33.68-1.31-9.16-5.89-17.7-12.57-24.08-7.66-7.31-17.66-11.38-28.24-11.38-5.39,0-10.92,1.2-15.52,4.1-5.25,3.32-9.03,8.49-10.79,14.44s-1.66,12.58.63,18.38c1.98,5.03,5.22,9.45,9.94,12.23s10.22,3.84,15.48,3.17c6.01-.76,11.42-3.84,14.55-9.14s3.7-11.7,1.72-17.25c-1.67-4.67-5.12-8.82-9.9-10.5-6.01-2.1-13.08,1.31-15.53,7.08-1.19,2.81-1.29,6.02-.31,8.92.59,1.74,2.33,2.88,4.18,2.37,1.69-.46,2.96-2.43,2.37-4.18h0Z"/>
      <path class="cls-1" d="M441.37,343.71c1.85-1.36,3.82-2.55,5.85-3.62.76-.4,1.53-.78,2.31-1.15.42-.2.85-.38,1.27-.57.84-.38-.41.16.12-.05.32-.13.65-.26.97-.39,2.13-.83,4.3-1.52,6.52-2.05,4.89-1.17,10.32-1.54,15.43-.71,5.58.91,10.46,2.79,15.17,5.76,1.11.7,2.19,1.46,3.24,2.25-.47-.35-.05-.04.04.03.31.25.61.49.91.74.43.36.85.72,1.26,1.09,1.3,1.17,2.54,2.41,3.7,3.72,1.91,2.14,5.98.5,5.8-2.4-.42-6.67-2.33-12.82-4.63-19.05-1.96-5.31-4.22-10.4-7.38-15.11-2.83-4.21-6.13-8.12-9.99-11.42-5.08-4.35-10.8-7.52-17.05-9.84-6.26-2.33-12.68-4.14-19.3-5.09l-.9,6.67c9.51,1.06,19.12.99,28.6-.24,8.25-1.07,17.91-2.33,23.79-8.89,1.5-1.67,1.23-5.3-1.5-5.67-7.79-1.07-14.73-3.87-20.74-9.01-3.75-3.22-6.58-6.7-8.92-10.99-.5-.91-.96-1.83-1.39-2.77-.09-.2-.18-.4-.27-.61-.43-.96.13.33-.1-.24-.2-.49-.39-.98-.57-1.47-.61-1.65-1.12-3.34-1.54-5.05-.2-.82-.38-1.65-.53-2.49-.07-.35-.13-.71-.18-1.06-.03-.17-.05-.33-.08-.5-.07-.44.18-.55.02.15.1-.42-.14-1.15-.18-1.59-.04-.41-.07-.82-.1-1.23-.12-1.83-1.48-3.4-3.4-3.4-1.75,0-3.51,1.56-3.4,3.4.41,6.52,2.16,12.9,5.05,18.75,4.85,9.81,13.28,17.42,23.35,21.61,3.58,1.49,7.33,2.54,11.17,3.06l-1.5-5.67c-2.32,2.59-5.13,3.89-8.46,4.85-3.88,1.12-7.95,1.75-11.96,2.23-9.02,1.06-18.14,1.07-27.17.07-1.65-.18-3.15,1.43-3.33,2.94s.74,3.48,2.43,3.73c5.63.81,11.1,2.24,16.48,4.09,5.43,1.87,10.43,4.09,15.15,7.69,7.87,6.01,13.2,13.99,16.68,23.15,2.34,6.18,4.64,12.39,5.06,19.05l5.8-2.4c-6.59-7.38-15.5-12.84-25.2-14.95-11.02-2.39-22.34-.48-32.4,4.4-2.59,1.26-5.11,2.71-7.44,4.42-1.48,1.08-2.21,2.95-1.22,4.65.85,1.46,3.16,2.31,4.65,1.22h0Z"/>
      <path class="cls-1" d="M490.08,124.87c-1.27,0-2.19.79-3.17,1.47-.89.62-1.77,1.24-2.65,1.86-1.95,1.37-3.9,2.74-5.84,4.12-3.66,2.59-7.32,5.18-10.98,7.78-6.88,4.9-13.84,9.71-20.56,14.82-14.13,10.75-23.09,26.98-31.5,42.24-5.5,9.99-10.9,20.18-13.95,31.23-.49,1.77.6,3.69,2.37,4.18s3.69-.6,4.18-2.37c2.57-9.32,6.9-17.94,11.5-26.4,4.37-8.03,8.78-16.09,13.87-23.7,4.66-6.97,10.02-13.7,16.59-19.04.13-.1.26-.2.39-.31.29-.24-.67.51-.02.02.45-.34.9-.68,1.35-1.01,1.28-.95,2.57-1.88,3.86-2.81,3.94-2.84,7.89-5.68,11.84-8.5,8.11-5.79,16.25-11.55,24.42-17.27l-1.71.46h0c4.37,0,4.38-6.79,0-6.79h0Z"/>
      <path class="cls-1" d="M446.59,250.87c5.24-1.74,10.02-4.5,14.11-8.21,2.08-1.89,3.94-4.04,5.54-6.34.8-1.15,1.48-2.41,1.89-3.75.25-.82.36-1.71.4-2.56.02-.29.03-.61.01-.9.09,1.35.06-.89-.05-.38.13-.55,1.59-1.59,2.14-2.27.99-1.22,1.7-2.48,2.26-3.96.9-2.38,1.09-5.06.95-7.59-.15-2.7-.7-5.36-1.12-8.02-.33-2.09-.58-4.98-.12-6.93.54-2.31,1.78-3.6,3.63-5.29,2.07-1.88,4.12-3.79,5.35-6.35,2.62-5.47,1.95-11.46.9-17.23-.36-1.98-.79-3.95-1.36-5.88-.27-.93-.63-1.83-.86-2.77-.04-.16-.38-1.29-.26-1.4.08-.08.08.93.06.43,0-.13-.03-.27-.04-.4-.03-.31-.05-.61-.06-.92-.02-.54-.01-1.08.01-1.61.02-.32.04-.64.07-.96.01-.13.03-.26.04-.4.08-.84-.04.2,0-.01.31-1.66.64-3.29,1.14-4.91.3-.97.64-1.93,1-2.87.09-.23.18-.46.27-.69.04-.1.38-.91.24-.58-.19.45.22-.51.2-.46.13-.3.27-.59.4-.89,2.52-5.46,5.72-10.59,9.13-15.54,1.04-1.51.28-3.77-1.22-4.65-1.68-.99-3.6-.3-4.65,1.22-5.2,7.54-10.33,15.82-12.53,24.82-.65,2.65-1.06,5.47-.86,8.2.17,2.32.83,4.32,1.46,6.52,1.27,4.48,2.2,9.27,1.94,13.94-.04.73-.31,1.97-.65,2.97-.28.83-.89,1.97-1.41,2.59-1.6,1.93-3.72,3.35-5.35,5.26-4.07,4.78-3.96,10.72-3.03,16.59.19,1.19.41,2.37.6,3.56.09.59.08.47.15,1.15s.12,1.38.15,2.08c.02.56.02,1.13,0,1.69-.01.31-.04.62-.06.92-.06.67.17-.75-.05.37-.26,1.34-.38,1.88-.96,2.86-.36.62-.24.47-.77,1.02-.5.51-1.05.97-1.52,1.5-1.37,1.55-1.88,3.21-1.95,5.27-.05,1.41-.31,2.18-1.15,3.43-.75,1.12-1.38,1.89-2.33,2.93-3.72,4.09-8.4,7.16-13.51,8.85-1.74.58-2.88,2.34-2.37,4.18.47,1.7,2.43,2.95,4.18,2.37h0Z"/>
      <path class="cls-1" d="M490.98,125c-15.99-5.04-33.1-6.16-49.63-3.39-17.15,2.87-33.34,10.23-47.04,20.89-6.4,4.98-12.21,10.69-17.28,17.02-1.15,1.43-1.4,3.41,0,4.8,1.19,1.19,3.65,1.44,4.8,0,9.26-11.54,20.94-20.98,34.23-27.51,14.96-7.35,31.67-10.63,48.29-9.78,8.44.43,16.7,1.96,24.82,4.52,1.75.55,3.7-.65,4.18-2.37.5-1.83-.62-3.62-2.37-4.18h0Z"/>
      <path class="cls-1" d="M111.3,216.81c6.22-3.93,13.29-5.95,20.6-5.91,1.64,0,2.7-1.09,3.27-2.49.14-.34.28-.67.42-1.01.08-.19.31-.73,0,0,.07-.16.13-.32.2-.47.32-.74.64-1.48.97-2.21.73-1.62,1.49-3.22,2.28-4.8,1.84-3.69,3.85-7.3,6.02-10.8,5.24-8.44,11.37-16.12,18.51-23.06,8.31-8.08,17.79-14.84,28.15-20.04,6.84-3.43,13.74-6.07,21.01-8.69,12.37-4.47,25.15-7.81,38.12-9.95,19.74-3.26,41.02-3.67,61.25-.58,22.47,3.44,44.1,10.95,63.84,22.15,2.77,1.57,5.5,3.22,8.2,4.92,1.55.98,3.74.33,4.65-1.22.96-1.63.34-3.66-1.22-4.65-19.92-12.59-42.08-21.64-65.2-26.27-21.74-4.35-44.11-4.91-66.06-1.99-14.55,1.94-28.88,5.27-42.75,10.09-6.52,2.27-13,4.73-19.32,7.52-10.65,4.7-20.5,10.86-29.38,18.39-14.71,12.46-26.34,28.47-34.17,46.05-.71,1.59-1.39,3.19-2.05,4.81l3.27-2.49c-8.47-.05-16.86,2.31-24.02,6.84-1.55.98-2.17,3.02-1.22,4.65s3.09,2.2,4.65,1.22h0Z"/>
      <path class="cls-1" d="M186.6,147.29c.92-3.28,2.49-6.07,4.55-8.78,1.02-1.35,1.93-2.77,2.38-4.43s.3-3.68.52-5.09c.5-3.18,2.17-5.84,3.68-8.66,1.73-3.24,3.18-6.59,3.53-10.28.15-1.65.02-3.39-.45-4.98-.29-.95-.71-1.87-1.18-2.75-.34-.64-.76-1.18-.82-1.9.05.57.11-.65.02-.05,0,.07.3-1.07.13-.62.23-.6.62-1.18,1-1.71.81-1.14,2.12-2.38,3.18-3.52,4.71-5.05,9.2-10.49,12.35-16.66,3.76-7.37,5.51-15.6,3.98-23.81l-6.21,2.62c10.57,14.3,17.93,30.95,21.24,48.42.95,5.02,1.6,10.04,1.91,15.14.11,1.83,1.48,3.4,3.4,3.4,1.75,0,3.51-1.56,3.4-3.4-1.14-18.97-6.54-37.56-15.8-54.17-2.48-4.45-5.25-8.73-8.28-12.82-1-1.36-2.58-2.12-4.24-1.39s-2.28,2.29-1.97,4.01c2.42,12.97-6.24,24.94-14.73,34.02-2.29,2.45-4.93,4.97-5.82,8.33-.45,1.73-.38,3.54.25,5.2s1.73,2.91,1.91,4.67c.25,2.39-.89,5.43-2.16,7.89-1.56,3.01-3.33,5.95-4.36,9.2-.61,1.93-.76,3.89-.86,5.89-.08,1.59-.79,2.62-1.86,4.03-2.38,3.15-4.17,6.59-5.23,10.41-.49,1.77.61,3.69,2.37,4.18s3.68-.6,4.18-2.37h0Z"/>
      <path class="cls-1" d="M165.16,164.59c5.51-8.23,10.54-17.29,12.7-27.04.72-3.24,1.15-6.61,1.05-9.93-.09-3.09-.77-6.03-1.39-9.04-.09-.46-.18-.92-.26-1.38-.05-.27-.09-.53-.13-.8.09.58,0,.02-.01-.08-.12-1.19-.2-2.39-.13-3.59.02-.29.04-.58.07-.86-.07.53.02-.05.04-.13.13-.57.28-1.13.45-1.69.16-.52.76-1.57,1.28-2.14.37-.39.77-.74,1.17-1.09.49-.43.2-.17.08-.08.26-.2.53-.39.79-.59,1.02-.74,2.05-1.47,3.01-2.28,2-1.68,3.36-3.88,3.62-6.51s-.93-5.08-2-7.43c-.34-.74-.2-.36-.46-1.12-.07-.21-.14-.43-.2-.65-.02-.08-.17-1.11-.12-.39-.02-.22-.02-.43-.01-.65-.02.57.04.04.04-.13,0-.03.07-.27.09-.27.03,0-.53.93-.1.27.14-.21.79-.99.21-.37.28-.3.54-.6.83-.89.39-.38.81-.75,1.24-1.1l.69-.53c-.27.22-.27.23,0,.03.47-.29.91-.64,1.38-.93,2.18-1.39,4.2-2.33,6.43-3.08,1.67-.56,3.4-.93,5.08-1.46,2.04-.65,4.03-1.54,5.87-2.61,2.27-1.32,4.38-2.95,6.32-4.71,1.1-1,2.15-2.07,3.15-3.18.55-.62,1.09-1.24,1.61-1.89.2-.24.4-.49.59-.74.28-.35.55-.71.83-1.07.37-.48.4-.52.07-.1,3.09-3.09-1.71-7.9-4.8-4.8-.98.98-1.75,2.25-2.67,3.3s-1.87,2.06-2.88,3.02c-.85.81-1.73,1.58-2.64,2.31-.51.4.61-.43-.26.19-.18.13-.35.26-.53.39-.51.36-1.04.71-1.57,1.04-.73.45-1.48.87-2.25,1.25-.39.19-.79.38-1.19.55.73-.32.19-.08,0,0-.26.1-.52.2-.79.29-1.36.48-2.76.78-4.14,1.18-2.38.69-4.72,1.61-6.93,2.72-3.07,1.55-5.22,3.04-7.38,5.13-1.3,1.26-2.49,2.82-2.87,4.63-.6,2.85.43,5.41,1.6,7.96.08.18.6,1.36.44.97.22.54.37,1.08.54,1.63.28.95.03-.31.05.25.01.28.03.56-.01.83.1-.68,0-.02-.06.03-.13.37-.13.38.01.02l-.14.26c-.06.08-.62.84-.15.28-.13.15-.27.3-.4.45-.36.37-.75.71-1.15,1.04.42-.35,0,0-.07.06-.26.19-.53.39-.79.58-.44.32-.89.64-1.32.97-2.13,1.61-3.96,3.41-5.06,5.89s-1.52,5.16-1.4,7.86c.1,2.28.51,4.54,1,6.76.17.78.36,1.56.52,2.34.06.3.11.6.16.9.02.12.04.24.06.35.12.73.1-.07-.02-.18.24.22.16,1.57.18,1.91.04.68.06,1.37.05,2.06s-.03,1.4-.08,2.09c-.02.35-.05.69-.09,1.04-.02.24-.06.47-.08.71-.06.71.11-.71,0,.07-.67,4.29-1.92,8.45-3.61,12.45.2-.47-.1.22-.15.33-.17.39-.34.78-.52,1.16-.26.57-.53,1.14-.8,1.7-.64,1.32-1.32,2.62-2.03,3.91-1.68,3.07-3.53,6.04-5.48,8.94-1.02,1.52-.3,3.76,1.22,4.65,1.67.98,3.62.31,4.65-1.22h0Z"/>
      <path class="cls-1" d="M61.37,450.61c-.06,10.93,5.61,20.74,14.09,27.37,2.43,1.9,5.43.65,5.8-2.4.13-1.08.2-1.62.4-2.91s.42-2.47.66-3.69c.54-2.71,1.2-5.39,1.98-8.03,1.44-4.9,3.23-9.48,5.45-14,.81-1.64.44-3.67-1.22-4.65-1.5-.88-3.83-.43-4.65,1.22-4.97,10.11-8.08,20.88-9.42,32.06l5.8-2.4c-1.9-1.48-3.66-3.13-5.24-4.94-.58-.67-1.15-1.35-1.7-2.04.38.48-.07-.1-.14-.2-.17-.23-.33-.46-.49-.69-.31-.45-.61-.91-.9-1.38-2.55-4.17-3.66-8.69-3.64-13.32.02-4.37-6.77-4.38-6.79,0h0Z"/>
      <path class="cls-1" d="M131.12,454.33c2.88,10.58,2.97,21.71.13,32.45-.78,2.95,2.39,5.2,4.99,3.83,12.45-6.55,21.98-17.55,27.04-30.63.66-1.71-.73-3.73-2.37-4.18-1.92-.53-3.51.65-4.18,2.37-.09.24-.19.48-.28.72-.04.09-.42,1.01-.25.62s-.2.45-.24.55c-.13.29-.26.57-.39.85-.62,1.32-1.29,2.61-2.01,3.88-1.66,2.92-3.59,5.68-5.81,8.2-4.28,4.88-9.2,8.72-14.93,11.74l4.99,3.83c3.12-11.8,3.07-24.29-.13-36.06-.48-1.77-2.41-2.86-4.18-2.37s-2.85,2.4-2.37,4.18h0Z"/>
      <path class="cls-1" d="M193.04,449.85c3.52,7.72,7.04,15.44,10.55,23.16.99,2.18,4.9,2.26,5.86,0,5.51-12.91,7.31-26.84,5.27-40.73-.27-1.82-2.56-2.81-4.18-2.37-1.95.53-2.64,2.36-2.37,4.18.03.21.13.91.05.31.04.32.08.64.12.96.08.68.15,1.35.21,2.03.12,1.37.2,2.74.24,4.11.1,3.42-.04,6.84-.44,10.23s-1.11,6.72-2.04,9.99c-.42,1.48-.88,2.95-1.4,4.4-.25.69-.5,1.38-.77,2.07-.11.27-.21.54-.32.81-.05.12-.48,1.14-.24.58h5.86c-3.52-7.72-7.04-15.44-10.55-23.16-.76-1.67-3.18-2.08-4.65-1.22-1.71,1-1.98,2.97-1.22,4.65h0Z"/>
      <path class="cls-1" d="M447.27,186.72c.35.52.68,1.05,1,1.6.21.37.42.74.62,1.12.13.26.26.51.39.77.05.11.55,1.23.29.61.43,1.05.78,2.13,1.03,3.24.08.34.15.69.19,1.04-.07-.55,0,.2.01.33.02.3.03.59.02.89,0,.14-.13,1.38-.04.88-.11.59-.26,1.19-.49,1.75.23-.57-.47.78-.42.72.02-.02-.91.8-.41.45-.06.04-.98.45-.38.24-.21.08-.43.12-.64.18-.41.07-.44.09-.11.04-.23.02-.47.04-.7.05-2.79.11-5.53-.58-8.32-.26-3.27.39-6.85,1.62-9,4.25-2.51,3.08-2.11,7.07-.26,10.38,1.21,2.18,3.03,3.93,4.92,5.51.65.55,1.33,1.08,1.95,1.66.16.15.31.31.47.46.26.24.35.67-.03-.08.05.1.14.2.19.3.16.32.11.2-.14-.36.09.35.08.2-.04-.45.04.73.26-1,.02-.25.33-1.04.34-.75.18-.46-.26.45,0-.27.27-.32-.05.01-.96.88-.37.4.5-.4.03-.03-.07.03-.23.13-.44.28-.67.41-.42.23-.85.43-1.29.63.68-.3.07-.03-.11.03-.35.13-.7.26-1.05.38-1.7.58-3.44,1.04-5.18,1.45s-2.85,2.45-2.37,4.18c.5,1.82,2.39,2.8,4.18,2.37,2.95-.7,5.91-1.53,8.64-2.87,1.52-.75,3.04-1.81,3.9-3.31,2.61-4.58-2.36-7.69-5.22-10.35-.37-.35-.73-.7-1.08-1.08-.21-.23-.42-.46-.61-.71.44.54-.19-.28-.22-.33-.18-.27-.34-.54-.5-.83-.02-.04-.44-1-.21-.39-.09-.24-.18-.5-.25-.74-.03-.1-.14-.83-.14-.71l.1-.41c-.13.26-.1.21.1-.15-.34.44.4-.4.39-.39-.38.34.5-.34.49-.33.21-.12.42-.24.63-.35,1.39-.69,2.88-.94,4.42-.92,2.98.05,5.91.73,8.87.04,3.59-.84,6.04-3.92,6.93-7.38,1.46-5.66-.91-11.75-4.05-16.43-1.02-1.52-2.99-2.18-4.65-1.22-1.51.88-2.25,3.12-1.22,4.65h0Z"/>
      <path class="cls-1" d="M173.72,353.41c6.99-12.12,15.1-23.56,24.28-34.12l-4.8-4.8c-.48.58-.97,1.15-1.45,1.73-1.18,1.4-1.37,3.43,0,4.8,1.21,1.21,3.61,1.41,4.8,0,.48-.58.97-1.15,1.45-1.73,1.18-1.4,1.37-3.43,0-4.8-1.23-1.23-3.59-1.39-4.8,0-9.56,10.99-18.07,22.87-25.34,35.49-2.19,3.79,3.68,7.22,5.86,3.43h0Z"/>
      <path class="cls-1" d="M105.69,343.07c6.99-12.12,15.1-23.56,24.28-34.12l-4.8-4.8c-.48.58-.97,1.15-1.45,1.73-1.18,1.4-1.37,3.43,0,4.8,1.21,1.21,3.61,1.41,4.8,0,.48-.58.97-1.15,1.45-1.73,1.18-1.4,1.37-3.43,0-4.8-1.23-1.23-3.59-1.39-4.8,0-9.56,10.99-18.07,22.87-25.34,35.49-2.19,3.79,3.68,7.22,5.86,3.43h0Z"/>
      <path class="cls-1" d="M207.02,313.16c9.38,10.24,24.42,14.54,37.81,11.01,1.77-.47,2.85-2.42,2.37-4.18s-2.4-2.84-4.18-2.37c-2.96.78-5.17,1.06-8.34,1s-5.4-.42-8.5-1.33c-2.88-.85-5.06-1.8-7.72-3.42s-4.51-3.18-6.64-5.51c-1.24-1.35-3.54-1.26-4.8,0-1.35,1.35-1.24,3.45,0,4.8h0Z"/>
      <path class="cls-1" d="M206.28,331.58c4.06,3.56,8.73,6.23,13.87,7.91,1.69.55,3.78-.64,4.18-2.37.42-1.86-.56-3.59-2.37-4.18-.53-.17-1.07-.36-1.59-.56-.3-.11-.59-.23-.88-.35-.42-.16.64.28.23.1-.13-.06-.26-.11-.39-.17-1.06-.47-2.1-.99-3.1-1.57s-1.93-1.16-2.85-1.8c-.23-.16-.46-.33-.68-.49-.1-.07-.6-.46-.16-.12.41.32.01,0-.07-.06-.47-.37-.93-.76-1.37-1.15-1.34-1.17-3.5-1.41-4.8,0-1.18,1.28-1.43,3.55,0,4.8h0Z"/>
      <path class="cls-1" d="M112.18,301.95c1.11,1.97,2.72,3.59,4.61,4.82s4.11,1.88,6.38,2.1c.82.08,1.84-.43,2.4-.99.59-.59,1.03-1.56.99-2.4s-.33-1.79-.99-2.4-1.46-.9-2.4-.99c-.16-.02-.32-.03-.48-.05l.9.12c-.88-.13-1.72-.37-2.54-.71l.81.34c-.85-.37-1.65-.83-2.38-1.4l.69.53c-.7-.55-1.32-1.17-1.86-1.87l.53.69c-.29-.38-.55-.79-.79-1.21-.41-.74-1.22-1.34-2.03-1.56s-1.89-.12-2.62.34c-1.57,1.01-2.15,2.99-1.22,4.65h0Z"/>
      <path class="cls-1" d="M190.33,226.77c-2.28,5.09-3.58,11.85-.03,16.71,3.22,4.41,8.9,6.5,13.94,7.98,7.23,2.13,14.89,3.13,22.43,2.98,5.27-.1,10.56-.74,15.76-1.56,9.07-1.44,17.97-3.83,26.6-6.99,1.53-.56,2.57-2.05,2.11-3.71-.41-1.47-2.17-2.67-3.71-2.11-7.36,2.69-14.92,4.83-22.62,6.3-5.37,1.02-10.06,1.63-15.6,1.94-5.71.32-11.48-.05-17.09-1.15-3.66-.72-7.64-1.75-10.92-3.13-.94-.4-2.23-1.04-3.25-1.67-.41-.25-.8-.54-1.2-.81-.17-.12.44.39,0,0-.18-.15-.36-.3-.53-.46-.27-.25-.52-.52-.78-.8-.11-.12-.49-.45-.08-.08.4.35.05.07-.05-.09-.31-.51-.56-.98-.74-1.56-.52-1.67-.5-3.46-.18-5.03.17-.81.39-1.61.66-2.4.12-.35.26-.69.39-1.04.19-.51-.19.42.13-.29.67-1.49.43-3.24-1.08-4.13-1.29-.75-3.46-.41-4.13,1.08h0Z"/>
      <path class="cls-1" d="M192.53,243.7c-7.91,10.34-11.78,24.86-6.94,37.37,2.26,5.85,6.06,10.67,11.09,14.39,3.86,2.86,8.36,4.84,12.94,6.24,8.64,2.64,17.74,3.33,26.6,1.3,12.21-2.79,23.57-10.81,28.88-22.35s4.8-25.05-1.58-36.1c-1.94-3.36-7.16-.33-5.21,3.05.38.65.74,1.32,1.07,2,.23.46.45.93.66,1.41.01.03.37.88.15.34.12.28.23.57.34.86.95,2.5,1.66,5.13,1.99,7.79.3,2.36.32,4.76.11,7.13-.11,1.28-.12,1.38-.37,2.71-.26,1.43-.61,2.84-1.04,4.22-3.35,10.73-11.97,18.37-22.35,21.93-5.48,1.87-11.16,2.51-16.93,2.08-.51-.04-1.03-.09-1.54-.14-.22-.02-.43-.05-.65-.07-.84-.09.63.11-.17-.02s-1.57-.25-2.36-.41c-1.17-.24-2.34-.52-3.5-.82-1.72-.45-3.43-.96-5.1-1.58-1.91-.7-3.37-1.35-5.49-2.55-4.29-2.44-7.84-5.66-10.31-10.06-6.41-11.38-2.85-25.52,4.91-35.65.99-1.3.2-3.38-1.08-4.13-1.55-.91-3.14-.22-4.13,1.08h0Z"/>
      <circle class="cls-7" cx="222.65" cy="272.19" r="10.93"/>
      <g>
        <path class="cls-2" d="M262.3,279.32c8.54-15.85,22.88-27.65,37.2-38.57-4.94,2.27-10.53,4.54-16.76,6.6-6.91,2.29-13.37,3.91-19.18,5.07,1.09,2.4,2.62,6.58,2.67,11.96.06,7.18-2.54,12.52-3.93,14.94"/>
        <path class="cls-2" d="M263.44,279.98c8.56-15.77,22.68-27.38,36.73-38.1,1.34-1.02.24-3-1.33-2.28-11.38,5.21-23.35,9.07-35.62,11.53-.91.18-1.11,1.22-.79,1.94,3.7,8.2,3.16,17.77-1.26,25.57-.84,1.48,1.44,2.81,2.28,1.33,4.92-8.67,5.36-19.16,1.26-28.23l-.79,1.94c12.5-2.51,24.66-6.49,36.25-11.8l-1.33-2.28c-11.27,8.6-22.44,17.6-31.1,28.93-2.45,3.2-4.65,6.57-6.57,10.11-.81,1.49,1.47,2.83,2.28,1.33h0Z"/>
      </g>
      <path class="cls-4" d="M114.57,219.18c-1.86,1.5-11.03,9.23-12.57,22.81-1.4,12.35,4.45,21.31,6.36,24.15,5.91,8.76,13.8,12.37,16.97,13.62-1.74-1.38-11.28-9.25-12.06-22.16-.57-9.36,3.76-16.58,5.62-19.67,2.78-4.65,5.99-7.81,8.3-9.76-4.21-2.99-8.41-5.99-12.62-8.98Z"/>
      <path class="cls-1" d="M174.44,228.34c.06,2.36-.06,4-.93,6.2-.4,1.01-1.14,2.08-2,2.92-.06.06-.32.22-.33.28,0,.03.61-.4.27-.21-.11.06-.2.14-.3.2-.21.13-.43.25-.65.36-.13.07-.26.12-.39.18.46-.22.35-.13-.02-.02-.83.27-1.67.47-2.54.6.49-.07-.13,0-.3.03-.29.03-.57.05-.86.06-.7.04-1.41.05-2.12.04-1.63-.03-3.26-.16-4.87-.37-3.5-.47-6.97-1.3-10.34-2.37-1.41-.45-2.8-.94-4.17-1.49-1.05-.41-1.46-.59-2.64-1.14-5.04-2.34-9.69-5.45-14.22-8.65-5.91-4.18-11.61-8.63-17.23-13.18-1.16-.94-2.78-1.14-3.92,0-.97.97-1.17,2.97,0,3.92,5.47,4.43,11.01,8.77,16.71,12.88,4.94,3.56,10.03,7.07,15.55,9.68,5.94,2.8,12.27,4.77,18.78,5.7,5.03.72,11.14,1.36,15.77-1.29,4.87-2.79,6.43-9.1,6.29-14.32-.09-3.56-5.63-3.57-5.54,0h0Z"/>
      <path class="cls-1" d="M166.84,242.91c2.53,10.02,1.39,21.89-5.82,29.82-3.56,3.92-8.21,6.31-13.39,7.24-2.03.36-4.42.46-6.66.37-.93-.04-1.85-.1-2.77-.2-.42-.04-.83-.09-1.24-.14.63.08-.59-.09-.82-.12-6.92-1.09-13-3.38-18.48-7.83-2.19-1.77-4.15-3.79-5.9-5.99-.11-.14-.73-.94-.31-.39-.24-.31-.47-.62-.7-.94-.59-.83-1.16-1.67-1.68-2.54-2.86-4.74-4.43-10.15-4.51-15.69-.15-9.85,4.28-19.23,11.99-25.34,1.17-.93.97-2.94,0-3.92-1.16-1.16-2.74-.93-3.92,0-7.75,6.15-12.43,15.44-13.43,25.21-1.18,11.56,3.52,22.79,11.64,30.9,6,5.99,13.99,10.17,22.35,11.63,10.24,1.79,20.81,1.08,29.14-5.82,10.84-8.97,13.15-24.7,9.86-37.72-.87-3.45-6.22-1.99-5.34,1.47h0Z"/>
      <path class="cls-6" d="M128.89,250.23c-2.82,4.83-1.33,11.12,3.31,14.05s10.7,1.38,13.52-3.45c2.82-4.83,1.33-11.12-3.31-14.05-4.65-2.93-10.7-1.38-13.52,3.45Z"/>
      <g>
        <path class="cls-2" d="M101.9,247.39c-1.59-16.77-9.41-32.13-17.51-46.72,3.31,3.74,7.17,7.72,11.63,11.74,4.95,4.47,9.75,8.2,14.17,11.29-1.74,1.68-4.46,4.74-6.37,9.36-2.54,6.18-2.23,11.73-1.92,14.32"/>
        <path class="cls-2" d="M103.11,247.39c-1.68-17.07-9.47-32.55-17.68-47.33l-1.9,1.47c7.75,8.72,16.49,16.52,26.04,23.22l-.25-1.9c-6.52,6.33-9.69,15.53-8.64,24.54.18,1.53,2.6,1.55,2.42,0-.98-8.42,1.83-16.9,7.93-22.83.6-.58.38-1.47-.25-1.9-9.38-6.59-17.94-14.28-25.55-22.85-.93-1.05-2.55.29-1.9,1.47,7.98,14.37,15.71,29.5,17.35,46.11.15,1.54,2.57,1.55,2.42,0h0Z"/>
      </g>
      <path class="cls-1" d="M124.73,407.45c-.28-5.4.15-10.66,1.4-15.84,2-8.28,6.11-15.36,11.74-21.7,2.64-2.97,5.64-5.72,9.41-7.14,2.82-1.06,4.88-1.37,7.78-1.22,1.52.08,2.03.16,3.52.45,1.39.27,2.77.6,4.14.96,3.16.82,6.29,1.73,9.47,2.48,9.36,2.21,19.02,3.06,28.62,2.47,3.1-.19,3.12-5.04,0-4.85-8.78.54-17.58-.1-26.17-2.03-6.23-1.4-12.36-3.74-18.76-4.27-7.48-.63-14.46,2.57-19.67,7.83-6.4,6.45-11.35,14.16-13.99,22.88-1.94,6.43-2.7,13.27-2.35,19.98.16,3.1,5.01,3.12,4.85,0h0Z"/>
      <path class="cls-1" d="M60.84,405.77c6.42-12.5,8.23-27.04,4.86-40.71-.78-3.18-1.87-6.24-3.15-9.25-.51-1.2-2.29-1.47-3.32-.87-1.25.73-1.38,2.11-.87,3.32-.14-.33.1.23.13.33.1.24.2.49.29.73.24.62.48,1.25.7,1.88.47,1.35.9,2.72,1.26,4.1.89,3.33,1.47,6.73,1.68,10.18.45,7.07-.51,14.12-2.8,20.82-.86,2.51-1.77,4.65-2.99,7.03-1.42,2.77,2.76,5.22,4.18,2.45h0Z"/>
      <g>
        <path class="cls-1" d="M141.42,399.84c-4.72-4.9-1.33-15.94,4.15-21.88,1.25-1.35,5.98-6.47,11.91-6.09,4.91.31,6.58,4.12,12.19,4.71,3.96.41,7.34-1.06,9.42-2.22-2.18,1.65-5.27,4.33-8.03,8.31-4.29,6.16-3.57,9.33-6.65,13.02-5.38,6.45-18.04,9.3-22.99,4.15Z"/>
        <path class="cls-1" d="M143.13,398.12c-.87-.94-1.37-2.34-1.49-3.69-.16-1.81.1-3.6.57-5.34.97-3.59,2.8-7,5.35-9.72,2.16-2.3,4.69-4.34,7.88-4.98,3.77-.76,6.29,1.96,9.5,3.37,5.08,2.23,10.62,1.31,15.37-1.31l-2.45-4.18c-3.19,2.43-5.98,5.19-8.36,8.42-2.25,3.06-3.65,6.4-4.99,9.93-.38,1.01-.88,2.13-1.62,3.11-.88,1.17-2.03,2.17-3.23,2.97-2.51,1.68-5.54,2.84-8.45,3.23-1.57.21-3.29.21-4.62-.08-1.46-.31-2.53-.8-3.45-1.72-2.21-2.21-5.63,1.22-3.43,3.43,5.09,5.1,13.74,3.65,19.61.9,3.19-1.49,6.13-3.76,8.06-6.73,1.77-2.72,2.41-6.02,3.94-8.87,2.16-4.02,5.56-7.79,8.99-10.4,1.04-.79,1.59-2.09.87-3.32-.68-1.16-2.17-1.5-3.32-.87-3.94,2.17-8.3,2.68-12.29.38-1.74-1-3.38-2.13-5.32-2.73-2.28-.7-4.82-.62-7.1.06-7.85,2.34-13.66,10.39-15.65,18-1.2,4.59-1.19,9.9,2.21,13.58,2.12,2.3,5.54-1.14,3.43-3.43Z"/>
      </g>
      <g>
        <path class="cls-1" d="M47.3,396.76c-2.98.72-6.35-.56-9.32-2.91,1.65-10.4,5.7-20.67,12.26-28.34,4,3.23,5.02,8.95,5.32,10.58,1.42,7.96-1.66,19.08-8.27,20.68Z"/>
        <path class="cls-1" d="M46.66,394.42c-2.72.58-5.39-1.08-7.45-2.66l1.11,2.74c1.59-9.82,5.15-19.61,11.64-27.27h-3.43c4.05,3.38,5.19,9.38,4.91,14.38-.16,2.83-.79,5.77-2.09,8.31-.61,1.19-1.24,2.16-2.16,3.05-.76.74-1.57,1.2-2.55,1.45-3.01.79-1.74,5.47,1.29,4.67,7.08-1.86,9.77-10.36,10.3-16.82s-1.17-14.21-6.28-18.48c-.94-.78-2.52-1.07-3.43,0-7.04,8.31-11.16,18.72-12.89,29.41-.19,1.2.17,2.01,1.11,2.74,3.2,2.47,7.12,4.02,11.18,3.15,3.05-.65,1.76-5.32-1.29-4.67Z"/>
      </g>
      <path class="cls-1" d="M98.06,368.98c-13.67,11.56-16.55,30.58-14.47,47.45.16,1.3,1,2.42,2.42,2.42,1.19,0,2.58-1.12,2.42-2.42-1.93-15.7.29-33.22,13.05-44.02,1-.85.87-2.56,0-3.43-.99-.99-2.42-.85-3.43,0h0Z"/>
      <path class="cls-1" d="M112.46,346.3c1.15-3.16,3.02-6.04,5.4-8.42,1.24-1.24,2.59-2.32,4.07-3.24,1.32-.81,2.92-1.74,4.53-1.61,3.67.31,2.6,5.59,1.99,7.84-1.05,3.89-2.64,7.56-4.7,11.01-1.61,2.68,2.58,5.12,4.18,2.45,2-3.34,3.61-6.93,4.75-10.65s2.08-8,.06-11.64c-4.47-8.04-14.41-1.73-18.8,2.9-2.75,2.9-4.81,6.32-6.17,10.07-.45,1.23.5,2.65,1.69,2.98,1.35.37,2.53-.46,2.98-1.69h0Z"/>
      <path class="cls-1" d="M133.99,310.21c1.06-3.19,2.83-6.14,5.14-8.58,1.2-1.27,2.51-2.41,3.97-3.36,1.29-.85,2.87-1.84,4.48-1.76,3.7.17,2.85,5.41,2.29,7.72-.94,3.91-2.42,7.63-4.39,11.14-1.53,2.72,2.66,5.17,4.18,2.45,1.91-3.39,3.43-7.02,4.48-10.77s1.91-8.08-.2-11.64c-4.69-7.92-14.4-1.48-18.7,3.31-2.67,2.97-4.66,6.43-5.92,10.22-.99,2.97,3.69,4.24,4.67,1.29h0Z"/>
      <path class="cls-1" d="M131.57,331.93c1.15-3.16,3.02-6.04,5.4-8.42,1.24-1.24,2.59-2.32,4.07-3.24,1.32-.81,2.92-1.74,4.53-1.61,3.67.31,2.6,5.59,1.99,7.84-1.05,3.89-2.64,7.56-4.7,11.01-1.61,2.68,2.58,5.12,4.18,2.45,2-3.34,3.61-6.93,4.75-10.65s2.08-8,.06-11.64c-4.47-8.04-14.41-1.73-18.8,2.9-2.75,2.9-4.81,6.32-6.17,10.07-.45,1.23.5,2.65,1.69,2.98,1.35.37,2.53-.46,2.98-1.69h0Z"/>
      <path class="cls-1" d="M145.58,358.25c2.92-5.63,5.96-14.57,1.08-20.02-2.27-2.53-5.89-3.2-9.11-2.57s-6.05,3.03-8.06,5.68c-2.47,3.26-3.76,7.18-5.7,10.74-1.49,2.74,2.69,5.19,4.18,2.45,1.86-3.41,3.09-7.22,5.41-10.36,1.75-2.36,4.18-4.12,7.03-3.9,2.68.21,3.91,2.56,3.91,5.25,0,3.48-1.31,7.15-2.93,10.27-1.44,2.76,2.75,5.22,4.18,2.45h0Z"/>
      <path class="cls-1" d="M164.22,327.28c5.17-6,10.46-14.94,6.62-22.93-1.69-3.51-5.01-6.33-9.11-6-4.31.35-8.06,3.11-10.56,6.5-2.35,3.19-3.91,6.99-5.56,10.56-.55,1.19-.34,2.61.87,3.32,1.05.61,2.76.32,3.32-.87,1.32-2.85,2.61-5.77,4.21-8.48,1.46-2.49,3.3-4.55,6.03-5.68,1.32-.54,2.74-.79,4.04-.08,1.06.57,1.67,1.48,2.23,2.49,1.13,2.06,1.24,4.31.65,6.76-1,4.12-3.42,7.81-6.16,10.99-.85.99-.97,2.45,0,3.43.87.87,2.57,1,3.43,0h0Z"/>
      <path class="cls-1" d="M180.99,336.14c5.17-6,10.46-14.94,6.62-22.93-1.69-3.51-5.01-6.33-9.11-6-4.31.35-8.06,3.11-10.56,6.5-2.35,3.19-3.91,6.99-5.56,10.56-.55,1.19-.34,2.61.87,3.32,1.05.61,2.76.32,3.32-.87,1.32-2.85,2.61-5.77,4.21-8.48,1.46-2.49,3.3-4.55,6.03-5.68,1.32-.54,2.74-.79,4.04-.08,1.06.57,1.67,1.48,2.23,2.49,1.13,2.06,1.24,4.31.65,6.76-1,4.12-3.42,7.81-6.16,10.99-.85.99-.97,2.45,0,3.43.87.87,2.57,1,3.43,0h0Z"/>
      <path class="cls-1" d="M164.69,345.11c2.92-5.63,5.96-14.57,1.08-20.02-2.27-2.53-5.89-3.2-9.11-2.57s-6.05,3.03-8.06,5.68c-2.47,3.26-3.76,7.18-5.7,10.74-1.49,2.74,2.69,5.19,4.18,2.45,1.86-3.41,3.09-7.22,5.41-10.36,1.75-2.36,4.18-4.12,7.03-3.9,2.68.21,3.91,2.56,3.91,5.25,0,3.48-1.31,7.15-2.93,10.27-1.44,2.76,2.75,5.22,4.18,2.45h0Z"/>
      <path class="cls-1" d="M120.77,320.45c1.45-2.44,3.3-4.87,5.61-6.56,1.03-.75,2.32-1.49,3.59-1.44.51.02.98.17,1.28.35.42.24.69.47.98.82.64.77.99,1.78,1.04,2.79.07,1.4-.3,2.79-.83,4.08-1.25,3.01-3.42,5.58-5.02,8.4s2.64,5.16,4.18,2.45c2.99-5.25,8.02-10.79,6.15-17.35-.79-2.75-2.78-5.07-5.51-6.01-3.01-1.04-6.3.21-8.72,2.04-2.83,2.14-5.14,4.95-6.95,7.99-1.6,2.69,2.59,5.13,4.18,2.45h0Z"/>
      <path class="cls-1" d="M180.48,203.13c1.1-3.2,2.88-6.17,5.23-8.61,1.11-1.16,2.33-2.21,3.67-3.09,1.22-.8,2.95-1.91,4.5-1.61,1.21.24,1.83,1.51,2.07,2.61.38,1.75-.07,3.6-.5,5.31-.98,3.87-2.47,7.55-4.43,11.03-1.49,2.64,2.57,5.02,4.07,2.38,1.89-3.35,3.42-6.93,4.49-10.63s1.89-7.67.2-11.29-5.82-4.91-9.49-3.53c-3.21,1.21-6.07,3.48-8.37,5.99-2.69,2.96-4.68,6.41-5.98,10.19-.99,2.87,3.56,4.11,4.54,1.25h0Z"/>
      <path class="cls-1" d="M200.8,167.04c.98-3.12,2.58-6.07,4.75-8.52,1.06-1.2,2.24-2.33,3.53-3.27s2.91-2.08,4.55-1.97c3.39.24,2.52,5.56,2.06,7.62-.88,3.96-2.27,7.76-4.17,11.34-1.42,2.68,2.64,5.06,4.07,2.38,1.83-3.45,3.29-7.11,4.27-10.89s1.71-7.77-.16-11.31-6-4.6-9.65-3.11c-3.16,1.29-5.97,3.68-8.16,6.26-2.55,3-4.45,6.45-5.63,10.21-.91,2.9,3.63,4.14,4.54,1.25h0Z"/>
      <path class="cls-1" d="M198.52,188.77c1.1-3.2,2.88-6.17,5.23-8.61,1.11-1.16,2.33-2.21,3.67-3.09,1.22-.8,2.95-1.91,4.5-1.61,1.21.24,1.83,1.51,2.07,2.61.38,1.75-.07,3.6-.5,5.31-.98,3.87-2.47,7.55-4.43,11.03-1.49,2.64,2.57,5.02,4.07,2.38,1.89-3.35,3.42-6.93,4.49-10.63s1.89-7.67.2-11.29-5.82-4.91-9.49-3.53c-3.21,1.21-6.07,3.48-8.37,5.99-2.69,2.96-4.68,6.41-5.98,10.19-.99,2.87,3.56,4.11,4.54,1.25h0Z"/>
      <path class="cls-1" d="M211.73,215.07c1.64-3.34,2.8-6.89,3.26-10.58.39-3.19-.02-6.59-2.09-9.15s-5.47-3.37-8.62-2.79c-3.33.61-5.95,3.04-7.86,5.69-2.36,3.27-3.55,7.18-5.38,10.74-.58,1.13-.29,2.55.84,3.22,1.05.62,2.64.29,3.22-.84,1.4-2.73,2.43-5.65,3.9-8.35,1.17-2.16,2.66-4.26,4.88-5.4,1.52-.78,3.69-.79,4.93.26,1.59,1.34,1.72,3.63,1.55,5.75-.23,2.96-1.34,6.29-2.71,9.08-.56,1.14-.31,2.55.84,3.22,1.04.61,2.66.3,3.22-.84h0Z"/>
      <path class="cls-1" d="M229.31,184.08c4.97-6.11,9.87-14.93,6.26-22.85-1.55-3.39-4.62-6.25-8.58-5.97-4.23.29-7.89,3.26-10.2,6.63-2.17,3.17-3.61,6.9-5.14,10.4-.51,1.16-.34,2.53.84,3.22,1,.58,2.71.33,3.22-.84,1.23-2.82,2.44-5.7,3.92-8.39,1.36-2.46,3.02-4.54,5.62-5.75,1.28-.59,2.73-.89,3.97-.04.95.65,1.48,1.51,2,2.53.1.2.19.39.28.59.12.27-.08-.26.09.23.2.59.4,1.29.46,1.81.17,1.41.01,2.85-.31,4.23-.96,4.02-3.18,7.69-5.76,10.87-.8.99-.96,2.37,0,3.33.83.83,2.52.99,3.33,0h0Z"/>
      <path class="cls-1" d="M245.13,192.94c4.97-6.11,9.87-14.93,6.26-22.85-1.55-3.39-4.62-6.25-8.58-5.97-4.23.29-7.89,3.26-10.2,6.63-2.17,3.17-3.61,6.9-5.14,10.4-.51,1.16-.34,2.53.84,3.22,1,.58,2.71.33,3.22-.84,1.23-2.82,2.44-5.7,3.92-8.39,1.36-2.46,3.02-4.54,5.62-5.75,1.28-.59,2.73-.89,3.97-.04.95.65,1.48,1.51,2,2.53.1.2.19.39.28.59.12.27-.08-.26.09.23.2.59.4,1.29.46,1.81.17,1.41.01,2.85-.31,4.23-.96,4.02-3.18,7.69-5.76,10.87-.8.99-.96,2.37,0,3.33.83.83,2.52.99,3.33,0h0Z"/>
      <path class="cls-1" d="M229.76,201.93c1.64-3.34,2.8-6.89,3.26-10.58.39-3.19-.02-6.59-2.09-9.15s-5.47-3.37-8.62-2.79c-3.33.61-5.95,3.04-7.86,5.69-2.36,3.27-3.55,7.18-5.38,10.74-.58,1.13-.29,2.55.84,3.22,1.05.62,2.64.29,3.22-.84,1.4-2.73,2.43-5.65,3.9-8.35,1.17-2.16,2.66-4.26,4.88-5.4,1.52-.78,3.69-.79,4.93.26,1.59,1.34,1.72,3.63,1.55,5.75-.23,2.96-1.34,6.29-2.71,9.08-.56,1.14-.31,2.55.84,3.22,1.04.61,2.66.3,3.22-.84h0Z"/>
      <path class="cls-1" d="M188.32,177.27c1.38-2.45,3.12-4.88,5.35-6.64.89-.7,2.11-1.43,3.25-1.4.93.03,1.6.5,2.1,1.18,1.54,2.07,1.07,4.83.1,7.2-1.17,2.9-3.16,5.42-4.63,8.16s2.63,5.05,4.07,2.38c2.84-5.29,7.39-10.6,5.87-17.05-.65-2.77-2.59-5.21-5.29-6.2-2.94-1.07-6.03.26-8.35,2.06-2.7,2.1-4.86,4.97-6.53,7.94-1.48,2.65,2.58,5.02,4.07,2.38h0Z"/>
      <path class="cls-1" d="M127.46,421.79c19.17,4.89,39.75,7.62,59.28,3.18,6.29-1.43,12.41-3.68,18.07-6.77,8.17-4.46,15.18-10.79,21.58-17.48,8.54-8.93,16.5-18.54,24.15-28.23,6.04-7.64,11.7-15.86,18.86-22.53,6.04-5.61,13.27-8.89,21.74-8.76,7.86.12,15.74,3.08,21.9,7.87,5.84,4.54,10.17,10.37,13.6,16.86.74,1.39,1.43,2.81,2.07,4.25.15.33.3.67.44,1,.19.43.04.1,0,0,.07.16.13.32.2.48.26.64.52,1.28.76,1.93.68,1.8,1.3,3.63,1.82,5.48.13.45.25.9.36,1.35l4.67-1.29c-5.07-13.29-15.27-24.85-28.94-29.5-8.81-3-18.62-3.57-27.16.6-6.47,3.16-10.92,9.62-15.14,15.18-6,7.9-11.79,15.97-17.51,24.09-3.99,5.67-7.87,11.42-12.26,16.8-3.41,4.19-7.06,8.18-11.01,11.87-1.97,1.84-4.03,3.57-6.14,5.25-.43.35.49-.37,0,0-.17.13-.35.26-.52.39-.44.33-.87.65-1.32.97-6.93,4.97-14.62,8.95-22.67,11.75-19.5,6.79-40.74,6.13-60.13-.66-1.29-.45-2.56-.93-3.83-1.43s-2.66.53-2.98,1.69c-.38,1.38.47,2.5,1.69,2.98,17.52,6.93,36.98,9,55.47,5.16s34.16-12.76,46.91-25.65c6.14-6.21,11.46-13.13,16.48-20.26s10.36-14.75,15.69-22.03c2.51-3.43,5.03-6.85,7.63-10.21,2.33-3.01,4.72-6.05,7.54-8.62.46-.42.93-.82,1.42-1.2-.45.35.31-.23.44-.31.28-.2.57-.39.86-.57.49-.31,1-.59,1.51-.86.27-.14.55-.27.83-.4.11-.05.23-.1.34-.15.34-.15-.34.12.34-.14,5.17-1.94,10.64-2.31,16.06-1.27,8.04,1.54,15.34,5.36,21.08,11.2,4.27,4.35,7.6,9.51,10.1,15.18.05.12.11.25.16.37,0-.01-.24-.58-.1-.24.07.17.14.34.21.51.1.26.2.51.3.77,1.09,2.86,5.44,1.8,4.67-1.29-2.66-10.64-8.1-21.13-15.66-29.08-11.95-12.57-31.92-18.33-47.66-9.31-7.51,4.3-13.13,11.25-18.42,17.94-7.48,9.46-14.92,18.91-22.79,28.06-7.38,8.58-15.09,17.31-24.45,23.79-2.52,1.74-5.16,3.3-7.9,4.66-.67.33-1.34.65-2.01.95-.86.39-1.13.5-1.75.75-1.5.61-3.02,1.16-4.56,1.66-17.23,5.58-36.04,4.33-53.64.71-3.14-.64-6.26-1.37-9.36-2.17s-4.31,3.9-1.29,4.67h0Z"/>
      <path class="cls-1" d="M58.96,412.06c-6.68,2.59-13.83,2.69-20.55.2-6.29-2.33-12.06-6.98-14.82-13.19s-2.06-13.04-.29-19.27c1.62-5.71,4.21-11.06,7.09-16.23,6.49-11.65,15.77-21.51,25.31-30.74,5.29-5.12,10.34-10.47,15.29-15.91,3.68-4.05,7.73-8.31,9.78-13.48,1.19-3,1.19-6.33.74-9.48-.85-5.85-3.79-11.24-7.35-15.87-1.35-1.75-2.78-3.41-4.31-5-.91-.95-2.52-.91-3.43,0-1.02,1.02-.81,2.4,0,3.43,4.83,6.13,8.75,14.23,6.07,22.1-2.13,6.26-8.64,10.63-13.96,14.43-11.24,8.03-22.42,16.28-32.27,26.02-10.71,10.59-20.25,23.29-24.19,38.04-3.79,14.19-2.83,30.38,6.85,42.06,10.41,12.57,28.01,16.72,43.67,15.45,2.29-.19,4.57-.49,6.83-.87,1.29-.22,2.01-1.81,1.69-2.98-.38-1.37-1.69-1.91-2.98-1.69-15.01,2.51-32.5.23-43.67-11.01-5.56-5.6-8.72-13.09-9.43-20.91-.29-3.19-.24-6.4.07-9.59.05-.54.11-1.09.18-1.63.03-.21.11-.87.03-.29.03-.24.07-.48.1-.72.26-1.85.61-3.68,1.06-5.49,3.54-14.35,12.77-26.58,23.1-36.82,4.53-4.49,9.37-8.67,14.35-12.66,5.44-4.35,10.91-8.33,16.89-12.6,5.74-4.1,12.33-8.53,15.41-15.14,3.71-7.98,1.67-16.87-2.8-24.1-1.08-1.75-2.31-3.41-3.58-5.02l-3.43,3.43c4.52,4.72,8.53,10.25,10.03,16.65.12.52.22,1.04.31,1.56.02.1.03.21.05.32.06.38-.05-.4,0-.03.03.26.06.52.08.78.07.77.09,1.55.06,2.33-.01.31-.03.62-.06.93-.01.13-.03.27-.04.4-.04.55.09-.48.02-.14-.14.68-.25,1.36-.47,2.03-.07.22-.15.43-.23.64-.2.56.08-.14-.11.26-.23.49-.47.97-.74,1.44-.59,1.04-1.26,2.03-1.97,3-1.71,2.33-3.88,4.74-5.92,6.98-5,5.5-10.11,10.89-15.45,16.06-9.76,9.44-19.2,19.63-25.83,31.54-6.19,11.13-12.26,25.19-7.68,37.98,5.31,14.8,22.94,22.4,37.73,18.8,1.38-.34,2.74-.77,4.06-1.29,1.22-.47,2.06-1.63,1.69-2.98-.32-1.17-1.75-2.17-2.98-1.69h0Z"/>
      <path class="cls-1" d="M169.54,208.98c7.95-18.86,19.88-35.96,34.85-49.92,12.34-11.5,26.66-20.76,42.03-27.68,5.6-2.52,11.62-4.8,17.69-6.73,2.96-.94,1.7-5.62-1.29-4.67-12.92,4.1-25.39,9.7-36.95,16.77-17.22,10.54-32.29,24.35-44.12,40.72-6.79,9.39-12.37,19.55-16.87,30.22-.51,1.21.55,2.67,1.69,2.98,1.4.38,2.47-.48,2.98-1.69h0Z"/>
      <path class="cls-1" d="M228.56,218.98c10.03-18.71,23.25-35.59,39.14-49.68,14.36-12.73,30.81-23.03,48.4-30.69,6.76-2.95,13.8-5.49,20.9-7.64,2.98-.9,1.71-5.58-1.29-4.67-14.87,4.49-29.24,10.72-42.63,18.61-19.07,11.25-36.12,25.91-49.95,43.22-7.1,8.88-13.38,18.38-18.75,28.4-1.47,2.75,2.71,5.2,4.18,2.45h0Z"/>
      <path class="cls-1" d="M224.45,143.43c1.42-.53,2.85-1.02,4.3-1.45,1.04-.31,2.09-.6,3.15-.83.49-.11.98-.21,1.47-.29.12-.02.84-.11.42-.07.26-.03.52-.05.78-.07.44-.03.89-.04,1.32,0-.34-.03.29.07.4.11-.03-.01-.31-.11-.07-.03.28.1.11.2.11.05,0,.11-.17-.16-.12-.2.02-.02.07.41.06.18s0,.21,0,.2c-.02.34-.17.97-.37,1.57-.73,2.14-1.82,4.08-3.11,5.94-1.72,2.47-3.21,5.09-4.54,7.79-.57,1.18-.32,2.62.87,3.32,1.07.62,2.74.31,3.32-.87,1.32-2.7,2.82-5.32,4.54-7.79,1.61-2.32,2.93-4.85,3.75-7.57.5-1.63.59-3.45-.24-4.99-.72-1.34-2.14-2.2-3.61-2.44-2.54-.4-5.17.16-7.63.8-2.07.54-4.1,1.21-6.1,1.96-1.22.46-2.06,1.64-1.69,2.98.32,1.18,1.75,2.15,2.98,1.69h0Z"/>
      <path class="cls-1" d="M232.68,158.22c2.64-3.17,6-5.51,9.56-7.54,2.75-1.57,6.95-3.42,9.44-.48.12.15.2.77.12.15.04.3.04.61,0,.91-.06.33-.2.67-.31.99-.17.49-.36.97-.55,1.45-.22.56-.48,1.2-.64,1.55-1.59,3.74-3.33,7.42-5.09,11.08-.57,1.18-.32,2.62.87,3.32,1.06.62,2.75.31,3.32-.87,1.63-3.39,3.24-6.8,4.74-10.26.83-1.92,1.88-3.95,2.34-6.01.88-3.96-1.78-7.31-5.56-8.33-4.04-1.09-8.01.52-11.47,2.52-3.75,2.18-7.41,4.73-10.2,8.09-.84,1.01-.99,2.44,0,3.43.86.86,2.59,1.01,3.43,0h0Z"/>
      <path class="cls-1" d="M249.82,167.67c3.38-3.56,7.49-6.62,12.06-8.49,1-.41,2.17-.82,3.27-.69.75.09,1.16.32,1.7.91,1.21,1.31.94,3.19-.3,4.43-2.21,2.21,1.21,5.63,3.43,3.43,2.52-2.52,3.29-6.37,1.57-9.56-1.58-2.93-4.77-4.4-8.02-3.97s-6.55,2.28-9.33,4.06-5.48,4-7.81,6.45c-2.15,2.26,1.27,5.69,3.43,3.43h0Z"/>
      <path class="cls-1" d="M239.26,141.23c.32-.15.64-.29.97-.43.29-.13.58-.25.87-.38.13-.05.71-.3.15-.06.21-.09.42-.17.63-.26,1.99-.82,4-1.59,6.04-2.25.96-.31,1.93-.59,2.91-.81.23-.05.45-.1.68-.14.16-.03.83-.09.17-.04.17-.01.33-.04.5-.05s.33-.01.5-.01c.08,0,.68.04.36,0,.23.03.45.1.68.16.09.02.26.11.36.12,0,0-.42-.22-.24-.1.5.33.65.26,1.01.69-.17-.2.1.34.03.06.04.15.06.56.07.54-.03.3-.29,1.04-.45,1.49-.76,2.15-1.77,4.23-2.87,6.35-.6,1.16-.3,2.63.87,3.32,1.09.64,2.71.3,3.32-.87,1.17-2.27,2.27-4.59,3.17-6.99.6-1.62,1.06-3.28.61-5.01-.43-1.62-1.66-2.97-3.14-3.7-2.44-1.21-5.05-.97-7.61-.32-2.37.6-4.68,1.46-6.96,2.37-1.7.67-3.38,1.38-5.05,2.14-1.19.54-1.48,2.27-.87,3.32.72,1.22,2.12,1.42,3.32.87h0Z"/>
      <path class="cls-1" d="M254.13,150.01c.95-.58,1.93-1.09,2.93-1.57.43-.21.87-.41,1.31-.6.1-.04.2-.09.3-.13-.04.02-.32.13-.06.03.29-.12.57-.23.86-.34,1.09-.42,2.21-.79,3.34-1.06,1.32-.32,1.62-.39,2.9-.42.27,0,.53,0,.8.01.15,0,.82.1.35.02.49.08.98.21,1.45.38-.45-.17.07.04.18.09.21.1.41.21.61.32.58.33.66.34,1.15.92.61.71.68,2.07.54,2.71-.16.68-.31,1.25-.58,1.76-.38.72-.54.93-.97,1.4-.2.22-.42.44-.64.64-.11.1-.65.56-.43.38s-.23.17-.34.24c-.14.1-.28.19-.43.28-2.64,1.65-.21,5.84,2.45,4.18,2.34-1.46,4.22-3.56,5.2-6.16,1.38-3.69.5-7.67-2.73-10.03-4.8-3.5-11.02-1.71-15.99.42-1.59.68-3.16,1.45-4.64,2.35-2.66,1.62-.23,5.81,2.45,4.18h0Z"/>
      <path class="cls-1" d="M269.84,159.25c1.31-.85,2.66-1.64,4.06-2.33.58-.29,1.17-.55,1.76-.82-.51.23.13-.05.32-.13.24-.1.49-.19.73-.28.71-.27,1.43-.48,2.18-.62.27-.05.17,0-.03,0,.18,0,.35-.03.53-.03s.35,0,.53,0c.27.01.19.06-.01,0,.44.15.63.17.85.28.35.18.71.37,1.04.59l-.87-.87.06.11v-2.45l-.06.08.87-.87-.09.04c-1.15.54-1.54,2.28-.87,3.32.76,1.18,2.09,1.45,3.32.87.48-.22.72-.59,1.02-.99.51-.67.39-1.76,0-2.45-.6-1.04-1.95-1.61-3.03-2.03-.87-.35-1.82-.5-2.76-.48-1.3.03-2.6.31-3.81.77-2.87,1.08-5.59,2.43-8.16,4.1-1.06.69-1.6,2.18-.87,3.32.68,1.06,2.18,1.61,3.32.87h0Z"/>
      <path class="cls-1" d="M239.26,141.23c4.31-2.69,7.03-7.5,6.73-12.63-.05-.87-.43-1.64-1.2-2.09-.68-.4-1.78-.51-2.45,0l-.33.25c-.52.4-.93.78-1.11,1.45-.16.58-.09,1.35.24,1.87.64.99,2.24,1.7,3.32.87l.33-.25-3.65-2.09c.03.49.03.97,0,1.46,0,.16-.02.31-.04.47-.04.46.07-.38.01-.06s-.12.65-.2.98c-.09.35-.19.7-.31,1.04-.04.13-.08.32-.16.42.12-.29.15-.35.08-.18-.03.08-.07.15-.11.23-.25.53-.54,1.03-.87,1.52-.07.1-.14.2-.22.3-.24.32-.07.01.07-.09-.2.13-.37.45-.54.62-.31.33-.63.65-.97.94-.13.12-.28.23-.41.34-.32.27.51-.37.18-.14-.06.04-.12.09-.18.13-.22.16-.45.31-.68.45-1.07.67-1.59,2.19-.87,3.32s2.17,1.59,3.32.87h0Z"/>
      <path class="cls-1" d="M256.65,137.78c3.72-1.08,7.41-3.45,8.75-7.25,1.24-3.53-1.05-7.18-4.31-8.56-2.56-1.08-5.53-.64-7.87.78-1.08.66-1.59,2.2-.87,3.32s2.16,1.57,3.32.87c.18-.11.37-.22.56-.31.08-.04.44-.17.12-.07s-.01,0,.04-.01c.42-.14.83-.25,1.26-.34.33-.07-.48.03-.14.02.08,0,.17-.01.25-.02.19,0,.39,0,.58,0,.07,0,.18.03.25.02-.3.08-.43-.08-.16-.02.21.05.42.09.63.15.07.02.26.11.31.1,0,0-.44-.21-.21-.09.17.09.34.17.5.26.12.07.23.16.35.23-.69-.45-.22-.18.03.06.21.2.39.46.6.65-.03-.03-.34-.5-.14-.17.04.06.08.11.11.17.06.09.16.4.24.43-.04-.02-.2-.58-.07-.18.02.07.05.14.07.21s.04.15.06.22c.14.47,0-.36-.01-.19-.01.22-.01.49,0,.71.02.26.03-.46.05-.39,0,.03-.03.16-.04.21-.03.14-.06.28-.11.42-.04.12-.1.24-.13.37-.06.22.15-.34.13-.32-.04.06-.07.14-.1.21-.13.27-.29.53-.46.78-.04.05-.07.1-.11.15-.21.31.13-.17.15-.19-.11.1-.2.24-.3.35-.23.26-.47.5-.73.73-.14.13-.3.24-.44.37.03-.03.47-.34.14-.11-.08.06-.16.12-.25.17-.34.24-.7.45-1.07.65-.22.12-.43.23-.66.33-.08.04-.15.07-.23.1-.41.19.32-.12.03-.01-.47.17-.94.34-1.42.48-1.22.35-2.1,1.72-1.69,2.98s1.68,2.07,2.98,1.69h0Z"/>
      <path class="cls-1" d="M257.23,137.54c2.88-1.28,5.91-2.34,9.02-2.89.85-.15,1.72-.26,2.88-.22.19,0,.38.03.57.04.28.03.24.03-.12-.02.22.04.44.08.65.14.69.17,1.01.3,1.44.52.26.13.5.28.75.44.03.02.43.34.16.12s.34.32.4.38c.66.68.88,1.64.61,2.71-.08.32-.2.63-.31.95-.21.63.37-.68-.09.19-.29.55-.62,1.09-.92,1.43-.23.25-.47.49-.72.71-.1.09-.56.43-.2.18-.35.25-.72.48-1.1.69-2.74,1.49-.3,5.68,2.45,4.18,4.71-2.57,7.97-9.19,4.21-13.89-2.92-3.65-7.81-3.98-12.08-3.19-3.48.64-6.82,1.92-10.04,3.35-1.2.53-1.48,2.27-.87,3.32.72,1.23,2.12,1.4,3.32.87h0Z"/>
      <path class="cls-1" d="M273.19,146.7c-.87.68-.21.16,0,0,.25-.18.5-.35.76-.52.72-.46,1.46-.89,2.23-1.25.11-.05.86-.36.27-.13.24-.09.48-.19.72-.27.5-.17,1.01-.32,1.52-.43.12-.03.98-.15.35-.08.27-.03.54-.05.81-.06s.54.01.82.02c.28.03.27.02-.03-.02.14.02.27.04.41.07.45.09.88.25,1.32.4.35.12-.56-.27.05.03.2.1.39.2.57.32.1.06.2.13.29.2-.25-.19-.27-.2-.06-.03.09.1.54.71.27.26.08.12.15.24.22.37-.06-.21-.05-.17.04.1.05.15.09.3.12.45-.02-.27-.02-.26,0,.03,0,.29,0,.57-.02.86.04-.6-.05.19-.08.32-.05.21-.12.42-.19.63-.03.09-.06.17-.09.26-.1.24-.06.15.12-.28.09.23-.56,1.03-.68,1.21.29-.42-.18.19-.26.27-.14.15-.3.29-.45.43-.95.84-.92,2.58,0,3.43,1.02.93,2.41.9,3.43,0,1.43-1.26,2.47-3.06,2.86-4.93.6-2.9-.25-5.65-2.64-7.45-3.6-2.71-8.44-1.93-12.22-.12-1.4.67-2.67,1.53-3.89,2.48-1.01.78-.88,2.62,0,3.43,1.07.98,2.35.83,3.43,0h0Z"/>
      <path class="cls-1" d="M272.71,134.09c2.79-1.23,5.6-3.63,6.3-6.73.81-3.59-1.44-6.78-4.74-8.02-1.93-.73-4.19-.61-6.14-.01-1.21.37-2.1,1.71-1.69,2.98s1.68,2.09,2.98,1.69c.4-.12.95-.35,1.37-.32-.36.05-.41.06-.14.03.11,0,.22-.02.33-.02.22,0,.44,0,.66,0,.09,0,.43.08.48.04-.38-.05-.44-.06-.18-.01.1.02.2.04.3.07.2.05.39.12.59.17.24.09.19.07-.16-.08.09.04.18.08.27.13.15.08.3.16.45.26.5.32-.3-.3.04.01.21.2.41.39.6.61.22.25-.4-.58-.06-.07.07.11.14.22.2.33.05.08.09.17.13.26-.14-.35-.16-.4-.07-.15.06.23.11.88.09.11,0,.17.13.76,0,.89.07-.07.12-.69,0-.19-.03.15-.08.31-.13.45-.2.6.21-.39.02-.01-.08.15-.15.3-.23.45-.06.11-.13.22-.2.33-.05.07-.1.15-.15.22-.15.2-.1.15.13-.16-.28.24-.5.58-.77.84-.14.14-.29.27-.45.4-.06.05-.12.1-.18.15-.14.11-.08.06.18-.14.03.09-.97.64-1.08.7-.39.23-.8.43-1.22.61-1.16.51-1.52,2.3-.87,3.32.78,1.21,2.07,1.42,3.32.87h0Z"/>
      <path class="cls-1" d="M290.71,133.16c1.72-.82,3.35-1.87,4.74-3.18,1.12-1.06,2.12-2.39,2.54-3.89.51-1.86-.08-3.84-1.59-5.07-1.65-1.34-3.66-2.12-5.8-2.13-1.7,0-3.36.44-4.89,1.16-1.15.54-1.54,2.28-.87,3.32.76,1.18,2.09,1.45,3.32.87.05-.02.09-.04.14-.06.35-.19-.59.23-.31.13.21-.08.41-.16.62-.23.25-.08.51-.15.77-.21.14-.03.27-.06.41-.08.08-.01.17-.02.25-.04-.67.16-.39.05-.19.03.35-.03.69-.04,1.04-.03.1,0,.19.01.29.02.41.02-.16,0-.2-.03.15.09.5.1.68.14s.35.11.53.17c.41.14-.09-.01-.12-.06.03.04.24.12.3.15.22.11.43.23.64.37.11.07.28.15.37.25,0,0-.48-.43-.22-.16.06.06.12.11.17.17.04.04.08.09.12.13.2.2-.3-.45-.16-.2.04.07.08.15.13.21.12.17-.15-.57-.08-.18.06.31-.03.37-.02-.3,0,.08.01.17.01.25s-.02.17-.01.26c-.03-.75.09-.53.01-.22-.03.11-.06.21-.1.32-.13.44.25-.52.1-.22-.12.24-.24.48-.39.7-.07.1-.14.2-.2.29-.2.3.19-.25.19-.24,0,.03-.11.13-.14.17-.2.24-.41.46-.63.68-.27.27-.56.51-.85.76-.12.1-.35.22.17-.13-.09.06-.18.14-.28.21-.17.12-.35.25-.52.36-.77.51-1.58.96-2.42,1.36-1.15.55-1.54,2.28-.87,3.32.76,1.18,2.09,1.45,3.32.87h0Z"/>
      <path class="cls-1" d="M272.63,134.48c.35-.19.71-.36,1.06-.53.32-.15.64-.3.96-.44.08-.04.58-.25.33-.14-.29.12.12-.05.19-.08.13-.05.27-.11.4-.16,1-.39,2.03-.74,3.06-1.03,1.17-.32,2.23-.54,3.1-.61.53-.04,1.06-.05,1.59-.02.13,0,.84.11.41.03.21.04.42.08.63.13.45.1.9.22,1.33.38.46.17.22.09.13.05.12.06.24.12.36.18.26.14.53.3.7.44.22.18.41.4.61.6.34.35-.05-.17.18.23.27.47.42.82.42,1.29,0,.56-.04.75-.23,1.37-.07.24-.16.47-.24.7-.02.07-.14.36,0,0,.19-.47-.17.35-.18.36-.31.6-.63,1.06-.93,1.38-.22.24-.45.47-.7.69-.1.09-.63.51-.3.27-.69.51-1.44.93-2.22,1.28-1.2.53-1.48,2.28-.87,3.32.72,1.24,2.11,1.4,3.32.87,2.21-.97,4.16-2.6,5.46-4.63,1.76-2.73,2.47-6.6.56-9.43-3.57-5.3-10.65-4.87-15.99-3.06-1.92.65-3.83,1.44-5.62,2.4-2.75,1.48-.3,5.66,2.45,4.18h0Z"/>
      <path class="cls-1" d="M286.69,144.83c.13-.11.26-.22.39-.32.1-.08.2-.16.3-.24.31-.25-.49.37-.12.09.61-.45,1.23-.9,1.87-1.32.78-.51,1.58-.98,2.42-1.39.23-.11.47-.22.7-.33-.54.25.11-.04.22-.08.44-.17.89-.31,1.35-.42.19-.05.52-.18.72-.15-.55-.09-.15.02.07,0,.36-.02.95-.1,1.29.05-.41-.06-.47-.07-.2-.03.11.02.22.04.32.06.17.04.34.09.51.13.25.09.23.08-.07-.05.11.05.23.11.33.18.22.15.22.14-.02-.04.1.09.19.19.28.29-.27-.36.05.37-.08-.08.04.13.07.26.1.39-.04-.35-.05-.41-.03-.16,0,.18,0,.35,0,.52.06-.7-.3.6.02-.09-.08.16-.17.3-.25.46-.19.38.36-.33-.09.11-.26.26-.82.69-.1.15-1.01.75-1.63,2.13-.87,3.32.65,1,2.23,1.68,3.32.87,1.65-1.22,2.78-2.97,2.83-5.08.05-2.65-1.74-4.83-4.25-5.53-3.83-1.07-7.71.59-10.89,2.65-1.22.78-2.38,1.66-3.49,2.59-.97.82-.91,2.59,0,3.43,1.04.95,2.39.87,3.43,0h0Z"/>
      <path class="cls-1" d="M291.54,133.7c2.23-2.47,5.64-5.16,9.18-3.98.47.16.63.18,1.09.56-.14-.11.27.26.19.17.23.27.3.91.16.21,0,.02.13.59.09.27.04.28.02.6-.02.87-.08.57-.29,1.13-.54,1.64-.52,1.04-1.27,1.9-2.11,2.69-.23.22-.47.42-.71.63-.1.08-.19.16-.29.24.15-.11.16-.12.03-.03-.31.23-.62.45-.94.65l2.45,4.18c2.51-1.82,5.11-3.58,7.9-4.95.7-.34,1-.48,1.72-.73.31-.11.63-.2.95-.28.18-.04.37-.09.56-.11-.22.03-.26.02-.02.02.13,0,.26,0,.39,0,.32-.02.05.05-.11-.02.3.12,0-.01-.11-.08.28.16-.02-.02-.09-.12.21.28,0,0-.04-.15-.06-.25.07.25.08.29.05.38,0,.9-.05,1.33-.13,1.3,1.21,2.42,2.42,2.42,1.42,0,2.29-1.12,2.42-2.42.24-2.41-.5-5.01-3.02-5.85-1.67-.56-3.56-.13-5.15.47-3.72,1.41-7.08,3.67-10.29,5.99-1.06.77-1.58,2.11-.87,3.32.64,1.09,2.22,1.59,3.32.87,2.48-1.62,4.82-3.77,6.05-6.52,1.61-3.59,1.16-7.72-2.64-9.63-5.55-2.79-11.58.36-15.41,4.6-2.08,2.31,1.33,5.75,3.43,3.43h0Z"/>
      <path class="cls-1" d="M298.42,127.7c2.17-1.31,4.52-2.45,7.06-2.86.31-.05.59-.08,1.03-.08.2,0,.4,0,.6.02.39.02-.48-.17.1.02s1.19.51,1.71,1.03c.12.12.24.24.35.38-.17-.21.16.23.14.21,1.33,1.22-.79-.36.16,0,.16.06-.32.59.05-.11,0,0-.17.61-.05.26s-.14.26-.15.27c-.12.19-.24.38-.37.57.23-.32-.08.1-.14.17-.14.16-.27.31-.42.46-.29.31-.59.6-.9.89-.57.53-1.17,1.03-1.77,1.53-1.24,1.02-2.72,2.31-1.67,4.1s2.83,1.28,4.18.42c2.45-1.57,4.81-3.27,7.44-4.54.8-.39.95-.48,1.96-.77.13-.04.26-.07.4-.11.07-.02.82-.14.43-.1-.28.03.51,0,.7.02-.66-.04-.29,0-.12.02.06,0-.3-.18-.29-.18-.12.03.02-.63.08.11-.02-.28.09.4.11.47.15.93-.06,2.25-.26,3.29-.25,1.28.36,2.62,1.69,2.98,1.19.33,2.73-.4,2.98-1.69.59-3.03,1.15-7.47-2.09-9.27-1.98-1.09-4.4-.49-6.36.31-2.23.91-4.3,2.12-6.32,3.43-.77.5-1.53,1.02-2.3,1.53-.26.17-.52.34-.78.51-.07.05-.27.11-.31.18.04-.06.72-.27.98-.24l1.22.33h-.01c.37.47.74.96,1.11,1.44v-.02c0,.43,0,.86,0,1.29-.57,1.38-.63,1,.03.45.35-.29.7-.57,1.05-.86.91-.76,1.81-1.55,2.59-2.45,2-2.3,2.95-4.96.96-7.63-1.59-2.13-4.02-3.58-6.73-3.56-3.72.04-7.41,1.72-10.54,3.6-2.67,1.61-.23,5.8,2.45,4.18h0Z"/>
      <path class="cls-1" d="M293.71,292.4c1.65-3.79,3.79-7.38,6.48-10.53s5.6-5.97,9.1-7.83c1.39-.74,3.17-1.45,4.77-1.04s2.18,1.79,2.42,3.23c.3,1.79.01,3.69-.32,5.46-.41,2.24-1.02,4.44-1.74,6.59-1.69,5.02-4.09,9.77-6.46,14.49-1.4,2.78,2.52,5.11,4.18,2.45,4.9-7.87,10.31-16.55,19.11-20.48,1.48-.66,4.03-1.56,5.1-.06.86,1.2.68,3.19.41,4.66-.98,5.36-3.03,10.72-5.04,15.76-2.32,5.83-5.14,11.46-8.33,16.86-1.59,2.69,2.6,5.13,4.18,2.45,3.25-5.51,6.07-11.25,8.48-17.18,1.19-2.93,2.27-5.91,3.24-8.93.87-2.72,1.82-5.51,2.25-8.34.38-2.5.41-5.2-.86-7.48-1.45-2.59-4.35-3.72-7.21-3.38-5.53.66-10.72,4.74-14.48,8.6-4.35,4.48-7.75,9.8-11.04,15.07l4.18,2.45c2.46-4.89,4.92-9.82,6.73-15,1.64-4.68,3.17-10.11,2.32-15.11s-5.52-7.89-10.51-6.75c-4.66,1.06-8.73,4.65-11.98,7.98-3.84,3.93-6.97,8.57-9.16,13.61-.52,1.2-.35,2.6.87,3.32,1.02.6,2.79.34,3.32-.87h0Z"/>
      <path class="cls-1" d="M318.85,273.78c2.48-2.79,5.26-5.33,8.37-7.4,2.49-1.66,5.54-3.32,8.62-2.48s3.78,3.49,3.26,6.35c-.68,3.75-2.14,7.47-3.72,10.92-.54,1.19-.34,2.61.87,3.32,1.04.61,2.77.33,3.32-.87,1.55-3.38,2.92-6.89,3.86-10.5.86-3.32,1.21-7.2-.86-10.16-1.9-2.71-5.15-4.13-8.42-4.13-3.45,0-6.72,1.59-9.52,3.48-3.38,2.29-6.47,5-9.18,8.05-2.07,2.32,1.35,5.76,3.43,3.43h0Z"/>
      <path class="cls-1" d="M347.01,239.95c2-6.55,5.64-12.84,10.74-17.46,1.21-1.09,2.56-2.06,4.05-2.74.95-.43,2.76-1.22,3.72-.46,1.05.83,1.02,2.92.99,4.1-.05,1.86-.43,3.69-.82,5.5-.96,4.42-2.33,8.73-3.7,13.04-.95,2.98,3.73,4.25,4.67,1.29,1.44-4.53,2.89-9.07,3.85-13.73.85-4.13,1.81-9.37-1.02-12.99-3.01-3.85-8.44-2.16-11.92.06s-6.42,5.57-8.85,9c-2.83,3.98-4.96,8.45-6.38,13.11-.91,2.99,3.76,4.27,4.67,1.29h0Z"/>
      <path class="cls-1" d="M283.52,393.65c2-6.55,5.64-12.84,10.74-17.46,1.21-1.09,2.56-2.06,4.05-2.74.95-.43,2.76-1.22,3.72-.46,1.05.83,1.02,2.92.99,4.1-.05,1.86-.43,3.69-.82,5.5-.96,4.42-2.33,8.73-3.7,13.04-.95,2.98,3.73,4.25,4.67,1.29,1.44-4.53,2.89-9.07,3.85-13.73.85-4.13,1.81-9.37-1.02-12.99-3.01-3.85-8.44-2.16-11.92.06s-6.42,5.57-8.85,9c-2.83,3.98-4.96,8.45-6.38,13.11-.91,2.99,3.76,4.27,4.67,1.29h0Z"/>
      <path class="cls-1" d="M370.78,217.74c1.54-2.46,3.22-4.94,5.54-6.74.98-.76,2.12-1.42,3.3-1.81.62-.2,1.27-.38,1.93-.42.27-.02.63-.04.89.01-.21-.04.28.26.13.09.15.17.35.69.47,1.1.19.65.32,1.3.35,1.98.08,1.49-.12,2.93-.48,4.37-.77,3.12-2.04,6.13-3.37,9.05-.54,1.19-.34,2.61.87,3.32,1.04.61,2.77.33,3.32-.87,2.55-5.6,5.59-12.15,4.17-18.44-.33-1.45-.92-2.99-2.02-4.03-1.19-1.12-2.88-1.52-4.47-1.4-3.14.24-5.94,1.6-8.38,3.54-2.66,2.11-4.64,4.97-6.43,7.82-1.66,2.65,2.53,5.09,4.18,2.45h0Z"/>
      <path class="cls-1" d="M316.74,200.41c5.8-6.25,10.48-14.52,11.38-23.11.42-4.03-.32-9.92-4.88-11.33s-8.7,1.99-11.78,4.64c-3.91,3.37-7.39,7.21-10.85,11.03-2.09,2.31,1.33,5.75,3.43,3.43,3.31-3.65,6.62-7.31,10.32-10.57,1.59-1.4,3.3-2.91,5.33-3.61.67-.23,1.69-.58,2.37-.16.59.37.83,1.2.99,1.83,1.16,4.36-.57,9.37-2.37,13.32s-4.32,7.83-7.37,11.12c-2.12,2.28,1.3,5.72,3.43,3.43h0Z"/>
      <path class="cls-1" d="M324.75,167.71c2.99-5.67,5.37-12.34,2.4-18.53-.69-1.45-1.88-2.68-3.44-3.17s-3.22-.16-4.68.32c-2.78.91-5.16,2.68-7.2,4.74-2.41,2.44-4.5,5.26-6.48,8.05-.76,1.07-.19,2.7.87,3.32,1.21.71,2.56.2,3.32-.87,1.78-2.51,3.65-5,5.82-7.18,1.79-1.79,4-3.52,6.45-3.76-.2.02.82.05.48,0-.14-.09-.08-.06.16.09-.15-.1-.12-.05.1.14-.12-.15.24.41.29.51.12.22.2.44.29.68.52,1.44.63,2.91.52,4.43-.22,3.11-1.65,6.05-3.08,8.77-.61,1.16-.29,2.63.87,3.32,1.09.64,2.7.29,3.32-.87h0Z"/>
      <path class="cls-1" d="M295.41,313.72c1.54-2.46,3.22-4.94,5.54-6.74.98-.76,2.12-1.42,3.3-1.81.62-.2,1.27-.38,1.93-.42.27-.02.63-.04.89.01-.21-.04.28.26.13.09.15.17.35.69.47,1.1.19.65.32,1.3.35,1.98.08,1.49-.12,2.93-.48,4.37-.77,3.12-2.04,6.13-3.37,9.05-.54,1.19-.34,2.61.87,3.32,1.04.61,2.77.33,3.32-.87,2.55-5.6,5.59-12.15,4.17-18.44-.33-1.45-.92-2.99-2.02-4.03-1.19-1.12-2.88-1.52-4.47-1.4-3.14.24-5.94,1.6-8.38,3.54-2.66,2.11-4.64,4.97-6.43,7.82-1.66,2.65,2.53,5.09,4.18,2.45h0Z"/>
      <path class="cls-1" d="M418.25,316.14c4.14-1.69,8.48-2.91,12.88-3.71.74-.13,1.48-.26,2.22-.37.22-.03.44-.06.66-.09-.54.07.03,0,.12-.01.52-.06,1.03-.12,1.55-.17,1.89-.19,3.8-.3,5.7-.33,4.18-.07,8.32.25,12.36,1.02,15.05,2.88,27.84,10.95,37.26,22.8.08.1.16.2.24.3.54.67-.41-.56.09.12.19.26.39.52.59.78.41.56.82,1.12,1.21,1.69.67.97,1.32,1.96,1.94,2.96.84,1.37,1.63,2.77,2.37,4.19.82,1.61,3.08,2.08,4.57,1.2,1.63-.95,2.03-2.96,1.2-4.57-4.78-9.31-11.86-17.39-20.18-23.69-14.36-10.87-32.72-15.2-50.47-12.77-5.5.75-10.94,2.12-16.09,4.22-1.67.68-2.85,2.22-2.34,4.11.44,1.58,2.43,3.02,4.11,2.34h0Z"/>
    </g>
  </g>
  <g id="Capa_1-2" data-name="Capa 1">
    <g>
      <path class="cls-3" d="M74.13,222.47l-38.56-8.26c-11.45-2.46-24.03-3.25-28.41,17.21-4.39,20.46,7.41,24.89,18.87,27.35l38.55,8.26c2,.43,3.31-.34,3.68-2.07l2.18-10.18c.39-1.82-.32-2.92-2.14-3.31l-7.91-1.7c-1.82-.39-2.52-1.58-2.15-3.31l1.68-7.82c.39-1.82,1.49-2.53,3.31-2.14l7.91,1.69c1.82.39,2.95-.41,3.32-2.14l2.18-10.19c.39-1.82-.51-2.96-2.51-3.39ZM44.28,235.29l-1.68,7.82c-.37,1.73-1.58,2.51-3.31,2.14l-9.91-2.12c-4.37-.94-6.41-2.04-5.13-8.04,1.29-6.01,3.61-6.17,7.97-5.24l9.82,2.11c1.82.38,2.54,1.49,2.24,3.33Z"/>
      <path class="cls-3" d="M82.22,168.2c-19.44-8.92-31.53,17.87-38.67,16.03-2.1-.56-3.11-3.48-1.6-6.77,1.83-3.98,5.3-5.76,9.04-4.76,1.81.52,2.96.03,3.39-1.82l2.31-10.6c.36-1.68-.22-2.87-1.78-3.48-6.32-2.29-19.51-3.43-27.5,13.99-8.68,18.93,5.58,27.32,8.15,28.4,19.45,8.92,29.51-17.26,37.44-15.57,2.51.54,3.57,4.7,1.67,8.85-1.83,3.97-5.63,6.01-9.84,4.49-1.85-.65-3.04-.07-3.48,1.78l-2.27,10.52c-.36,1.68.22,2.86,1.78,3.48,5.16,1.98,14.15,3.35,21.74-3.92.47-.44.92-.91,1.37-1.42,1.89-2.12,3.66-4.83,5.23-8.26,9.2-20.04-4.45-29.77-6.98-30.94Z"/>
      <path class="cls-3" d="M108.17,157.92l-49.43-33.16c-1.54-1.04-2.83-.78-3.87.76l-5.7,8.5c-.98,1.47-.78,2.84.76,3.87l49.44,33.16c1.46.99,2.88.71,3.87-.76l5.7-8.5c1.03-1.54.7-2.88-.77-3.87Z"/>
      <path class="cls-3" d="M142.34,118.4l-28.75-26.99c-8.54-8.02-18.9-15.19-33.22.07-14.32,15.26-6.51,25.14,2.03,33.16l28.76,26.99c1.49,1.4,3,1.42,4.21.13l7.13-7.6c1.27-1.36,1.23-2.67-.12-3.94l-5.9-5.54c-1.36-1.27-1.34-2.66-.13-3.94l5.47-5.84c1.28-1.35,2.59-1.39,3.95-.12l5.9,5.54c1.35,1.27,2.73,1.16,3.94-.13l7.13-7.59c1.27-1.36,1.1-2.8-.4-4.2ZM110.16,113.96l-5.47,5.83c-1.21,1.29-2.66,1.33-3.95.12l-7.39-6.93c-3.25-3.06-4.44-5.06-.23-9.54,4.2-4.47,6.27-3.42,9.52-.36l7.33,6.87c1.35,1.27,1.4,2.59.19,4.01Z"/>
      <path class="cls-3" d="M178.93,83.68c.2-.76.82-2.18,3.97-4.57l-27.36-41.42c-1.03-1.55-2.31-1.82-3.87-.79l-8.69,5.74c-1.47.97-1.81,2.31-.79,3.86l16.56,25.07c.51.77,0,1.34-.78.84l-27.62-18.86c-1.36-.89-2.58-.87-3.89,0l-11.41,7.54c-1.48.97-1.82,2.31-.79,3.87l32.8,49.66c.98,1.47,2.39,1.76,3.87.79l8.69-5.74c1.55-1.03,1.76-2.39.79-3.87l-16.56-25.06c-.51-.78.01-1.34.78-.85l27.62,18.87c1.37.88,2.58.86,3.9,0l5.53-3.66c.39-3.91-3.75-7.56-2.75-11.41Z"/>
      <path class="cls-3" d="M290.49,47.03c-.71-5.72-4.05-9.99-8.05-11.28,3.27-4.62,3.45-10.83,3.06-13.97-1.87-15.13-9.38-21.33-26.74-19.19l-19.38,2.4c-1.83.32-2.64,1.35-2.41,3.2l7.28,58.98c.21,1.76,1.35,2.65,3.11,2.43l22.8-2.82c17.35-2.14,21.74-8.3,20.33-19.75ZM255.66,29.03l-.87-7.02c-.23-1.84.67-2.89,2.43-3.11l4.98-.61c4.43-.55,6.72-.27,7.42,5.45.71,5.73-1.44,6.55-5.87,7.1l-4.98.62c-1.76.21-2.89-.58-3.11-2.43ZM267.34,53.83l-5.82.71c-1.75.22-2.88-.58-3.11-2.42l-.52-4.25c-.23-1.85.67-2.89,2.43-3.11l5.99-.74c4.44-.55,6.55-.15,7.08,4.19.54,4.33-1.62,5.07-6.05,5.62Z"/>
      <path class="cls-3" d="M324.43.21c-21.92-2.23-24.89,14.01-25.51,20.12l-2.36,23.13c-.62,6.11-1,22.61,20.93,24.85,21.93,2.24,24.9-14.01,25.52-20.11l2.36-23.14c.62-6.1.99-22.61-20.94-24.85ZM328.95,28.35l-1.36,13.32c-.72,7.12-1.63,11.42-8.48,10.73-6.84-.7-6.86-5.1-6.14-12.22l1.36-13.33c.73-7.12,1.64-11.42,8.48-10.72,6.85.7,6.87,5.09,6.14,12.22Z"/>
      <path class="cls-3" d="M411.4,27.15c1.68-1.5,1.34-3.09-.69-3.77l-11.01-3.74c-1.49-.5-2.64-.3-3.76.69l-11.38,9.79c-.56.5-1.09.32-1.23-.41l-2.98-14.67c-.29-1.47-1.08-2.33-2.58-2.83l-10.92-3.71c-2.11-.71-3.35.34-2.92,2.55l6.34,30.53c.11.53-.01.88-.42,1.23l-26.62,22.89c-1.68,1.49-1.34,3.08.78,3.8l11.98,4.06c1.49.51,2.64.31,3.79-.77l13.45-11.85c.56-.49,1-.34,1.14.39l3.7,17.76c.29,1.47,1.08,2.33,2.58,2.83l10.92,3.71c2.11.71,3.35-.34,2.92-2.55l-7.09-33.83c-.11-.53.01-.88.42-1.23l23.58-20.87Z"/>
      <path class="cls-3" d="M464.6,120.43c-3.11-3.07-3.72-7.34-.84-10.78,1.24-1.52,1.1-2.83-.49-3.87l-9.1-5.74c-1.45-.92-2.77-.78-3.88.48-3.81,4.38-8.45,12.98-3.06,23.26,7.08-1.24,13.74-1.65,19.79-1.54-.83-.45-1.65-1.05-2.42-1.81ZM483.03,137.22c.38-.25.7-.48.97-.69-.31.22-.64.45-.97.69ZM501.17,83.48c-14.81-14.65-27.58-4.13-29.47-2.08-15.05,15.2,6.09,33.64,1.79,40.5-.14.23-.32.43-.53.6,6.82.49,12.66,1.57,17.2,2.65,1.6-12.92-10.4-26.4-7.15-31.12,1.24-1.78,4.33-1.73,6.91.82,3.1,3.08,3.58,6.95,1.36,10.12-1.11,1.52-1.03,2.77.55,3.81l9.17,5.81c1.45.91,2.77.77,3.88-.48,4.31-5.16,9.9-17.15-3.71-30.63Z"/>
      <path class="cls-3" d="M553.66,154.72l-25.72-40.07c-.95-1.49-2.28-1.85-3.85-.84l-8.77,5.62c-1.48.96-1.79,2.37-.84,3.86l7.03,10.96c1.01,1.56.73,2.85-.84,3.85l-36.63,23.5c-.17.11-.33.23-.47.36-1.07.93-1.21,2.18-.37,3.5l2.24,3.47h0s3.39,5.29,3.39,5.29c1,1.57,2.36,1.8,3.85.84l36.63-23.5c1.57-1,2.9-.64,3.85.84l7.03,10.96c1.01,1.57,2.37,1.8,3.86.84l8.76-5.62c1.57-1.01,1.85-2.29.85-3.86Z"/>
      <path class="cls-3" d="M570.98,191.7c-7.6-20.69-23.5-16.24-29.26-14.12l-21.82,8.01c-5.76,2.12-20.77,9.02-13.17,29.7,7.6,20.69,23.5,16.24,29.26,14.12l21.83-8.01c5.76-2.12,20.76-9.02,13.16-29.7ZM547.67,208.08l-12.57,4.62c-6.72,2.47-10.98,3.54-13.35-2.92-2.38-6.46,1.57-8.4,8.29-10.87l12.57-4.62c6.72-2.47,10.98-3.54,13.36,2.92,2.37,6.46-1.57,8.4-8.3,10.87Z"/>
      <path class="cls-3" d="M584.98,256.03l-2.7-20.28c-.34-1.83-1.39-2.63-3.23-2.39l-58.9,7.86c-1.75.23-2.63,1.38-2.4,3.14l1.38,10.32c.24,1.84,1.29,2.64,3.13,2.4l14.75-1.97c1.84-.25,2.9.64,3.13,2.39l.59,4.43c2.19,16.41,10.08,22.11,25.2,20.09,15.12-2.01,21.24-9.58,19.05-25.99ZM563.82,266.17c-5.72.76-6.57-1.38-7.16-5.8l-.66-4.98c-.23-1.75.64-2.9,2.4-3.13l7-.94c1.85-.24,2.9.65,3.14,2.4l.66,4.98c.59,4.42.33,6.71-5.38,7.47Z"/>
    </g>
    <text class="cls-5" transform="translate(150.03 593.06) rotate(-13.14)"><tspan x="0" y="0">Comida China</tspan></text>
    <path class="cls-1" d="M129.28,613.28c35.63-8.45,71.25-16.91,106.88-25.36,35.63-8.45,71.25-16.91,106.88-25.36,35.48-8.42,70.96-16.84,106.43-25.26,35.63-8.45,71.25-16.91,106.88-25.36,4.58-1.09,9.17-2.17,13.75-3.26,3.62-.86,7.19-1.65,10.29-3.82,4.6-3.22,7.7-8.86,5.35-14.4-1.88-4.44-6.54-7.82-11.07-9.17-5.62-1.68-11.79-.54-17.11,1.65-1.32.54-2.62,1.13-3.86,1.84-1.97,1.14-.19,4.19,1.78,3.05,7.88-4.56,19.6-6.05,25.83,1.99,4.34,5.61-.56,11.63-6.05,13.82-3.87,1.54-8.25,2.15-12.3,3.11-4.29,1.02-8.57,2.03-12.86,3.05-34,8.07-68,16.14-102,24.2-34.15,8.1-68.29,16.21-102.44,24.31-34.15,8.1-68.29,16.21-102.44,24.31s-68,16.14-102,24.2c-4.29,1.02-8.57,2.03-12.86,3.05-2.21.52-1.27,3.93.94,3.4h0Z"/>
  </g>
</svg>