<svg id="Capa_1" data-name="Capa 1" xmlns="http://www.w3.org/2000/svg" viewBox="0 0 534.63 191.3"><defs><style>.cls-1{fill:#0fc;}</style></defs><polygon class="cls-1" points="21.88 145.45 88.98 0 155.67 145.45 88.77 82.66 21.88 145.45"/><path class="cls-1" d="M279.5,643.26l16.56-34.76,7.61-1.3,9.17-10.83,7.09-1.67h4.36L331.6,593h9.71l6.12-6.25,7.09-3.33,10-6.26h6l5.72,2.51,5,.83,4.59,5.83.83,2.5,2.5,1.25h2.5l5.42,5.42,10.84.84,16.25,10.83,9.17,1.67,14.17,14.59,9,19.8s-38.16-20-88.18-19.47a232.24,232.24,0,0,0-71.89,12.79C290.43,638.66,284.81,640.91,279.5,643.26Z" transform="translate(-279.5 -451.95)"/><path class="cls-1" d="M499.34,538.39H488.22l-2.84-6.59h-20.7l-2.84,6.59H450.72l22.62-51.53h3.38Zm-31.06-15.1H481.7L475,506.19Z" transform="translate(-279.5 -451.95)"/><path class="cls-1" d="M519,499.59A18.17,18.17,0,0,1,535.46,509l-7.21,5.6a15.72,15.72,0,0,0-3.83-4,9,9,0,0,0-5.37-1.54,9.59,9.59,0,0,0-9.16,6.25,11.2,11.2,0,0,0-.73,4.11,11.48,11.48,0,0,0,.73,4.14,9.56,9.56,0,0,0,9.16,6.29,9,9,0,0,0,5.37-1.54,15.26,15.26,0,0,0,3.76-3.91l7.2,5.52A18,18,0,0,1,519,539.31a20.85,20.85,0,0,1-8-1.53,20.23,20.23,0,0,1-6.48-4.22,19.34,19.34,0,0,1-4.33-6.32,19.6,19.6,0,0,1-1.58-7.86,19.39,19.39,0,0,1,1.58-7.83,19.15,19.15,0,0,1,4.33-6.25A20.9,20.9,0,0,1,519,499.59Z" transform="translate(-279.5 -451.95)"/><path class="cls-1" d="M556.4,499.59a20.89,20.89,0,0,1,14.41,5.71,19.73,19.73,0,0,1,4.37,6.25,18.92,18.92,0,0,1,1.61,7.83,19.13,19.13,0,0,1-1.61,7.86,19.57,19.57,0,0,1-4.37,6.29,21,21,0,0,1-28.83,0,19,19,0,0,1-4.33-6.29,19.6,19.6,0,0,1-1.58-7.86,19.39,19.39,0,0,1,1.58-7.83A19.15,19.15,0,0,1,542,505.3a20.77,20.77,0,0,1,6.44-4.17A20.38,20.38,0,0,1,556.4,499.59Zm0,9.43a9.21,9.21,0,0,0-7.1,3,10.6,10.6,0,0,0-2.72,7.47,10.33,10.33,0,0,0,2.72,7.4,9.33,9.33,0,0,0,7.1,2.88,9.79,9.79,0,0,0,3.87-.77,9.13,9.13,0,0,0,3.1-2.15,10.38,10.38,0,0,0,2.07-3.25,10.82,10.82,0,0,0,.77-4.11,11.08,11.08,0,0,0-.77-4.14,10.28,10.28,0,0,0-2.07-3.3,9.66,9.66,0,0,0-3.1-2.18A9.32,9.32,0,0,0,556.4,509Z" transform="translate(-279.5 -451.95)"/><path class="cls-1" d="M601.33,499.59a15.5,15.5,0,0,1,6,1.11,12.8,12.8,0,0,1,4.53,3.11,13.88,13.88,0,0,1,2.84,4.79,18.67,18.67,0,0,1,1,6.25v23.54H605.4V516.23a7.45,7.45,0,0,0-1.92-5.33,6.75,6.75,0,0,0-5.14-2,7,7,0,0,0-5.21,2,7.29,7.29,0,0,0-2,5.33v22.16H580.78v-38h9.51V504a15,15,0,0,1,4.75-3.18A15.82,15.82,0,0,1,601.33,499.59Z" transform="translate(-279.5 -451.95)"/><path class="cls-1" d="M639.83,499.59A18.2,18.2,0,0,1,656.32,509l-7.21,5.6a15.93,15.93,0,0,0-3.84-4A9,9,0,0,0,639.9,509a9.64,9.64,0,0,0-7.13,3,10,10,0,0,0-2,3.26,11.2,11.2,0,0,0-.73,4.11,11.48,11.48,0,0,0,.73,4.14,9.55,9.55,0,0,0,5.14,5.48,9.69,9.69,0,0,0,4,.81,9,9,0,0,0,5.37-1.54,15.1,15.1,0,0,0,3.76-3.91l7.21,5.52a18,18,0,0,1-16.41,9.43,20.87,20.87,0,0,1-8-1.53,20.23,20.23,0,0,1-6.48-4.22,19.69,19.69,0,0,1,0-28.26,20.9,20.9,0,0,1,14.5-5.71Z" transform="translate(-279.5 -451.95)"/><path class="cls-1" d="M675.41,499.59a20,20,0,0,1,6.59,1,13.47,13.47,0,0,1,8.48,8.13,19.39,19.39,0,0,1,1.19,7.09v22.54h-9.44v-3.68a13.84,13.84,0,0,1-4.94,3.38,17.52,17.52,0,0,1-6.71,1.22,16.15,16.15,0,0,1-5.52-.88,12.45,12.45,0,0,1-4.14-2.37,9.78,9.78,0,0,1-2.57-3.57,11.41,11.41,0,0,1-.89-4.53,9.59,9.59,0,0,1,3.88-8.12q3.87-2.93,10.54-2.92h9.51v-1.68a6.65,6.65,0,0,0-1.76-4.91q-1.77-1.77-5.37-1.77a10.28,10.28,0,0,0-5.33,1.38,22.89,22.89,0,0,0-4.72,3.84l-5.29-6.37A20.43,20.43,0,0,1,675.41,499.59Zm-2.07,32.13a8.31,8.31,0,0,0,5.71-2.07,6.91,6.91,0,0,0,2.34-5.44v-.46h-8.13q-5.29,0-5.29,3.83a3.55,3.55,0,0,0,1.5,3.07A6.42,6.42,0,0,0,673.34,531.72Z" transform="translate(-279.5 -451.95)"/><path class="cls-1" d="M713.83,499.59a17,17,0,0,1,7.25,1.46,13.21,13.21,0,0,1,5.09,4.14v-4.76h9.51v33.75a21.89,21.89,0,0,1-1.45,8.36,16.47,16.47,0,0,1-4,5.9A16.3,16.3,0,0,1,724,552a26.13,26.13,0,0,1-7.9,1.15,26.42,26.42,0,0,1-10.85-2.07,29.16,29.16,0,0,1-7.86-5l5.44-7.21a28.56,28.56,0,0,0,5.75,3.57,15.69,15.69,0,0,0,6.6,1.34,11.83,11.83,0,0,0,7.28-2.18q2.93-2.19,2.92-6.79v-2.15a12.91,12.91,0,0,1-5,3.45,17.89,17.89,0,0,1-6.56,1.15,19.08,19.08,0,0,1-7.29-1.38,17,17,0,0,1-5.79-3.83,17.64,17.64,0,0,1-3.79-5.94,22.34,22.34,0,0,1,0-15.46,17.45,17.45,0,0,1,3.83-5.9,17.24,17.24,0,0,1,5.79-3.8A19.36,19.36,0,0,1,713.83,499.59Zm2,8.82a11.14,11.14,0,0,0-3.79.65,8.68,8.68,0,0,0-3.11,1.92,9.17,9.17,0,0,0-2.07,3.1,11,11,0,0,0-.77,4.22,11.19,11.19,0,0,0,.77,4.26,9.53,9.53,0,0,0,2.11,3.22,9,9,0,0,0,3.1,2,10.25,10.25,0,0,0,3.76.69,10.55,10.55,0,0,0,3.57-.61,8.78,8.78,0,0,0,3.07-1.88,9.58,9.58,0,0,0,2.18-3.22,11.49,11.49,0,0,0,.84-4.56,10.94,10.94,0,0,0-.84-4.49,8.42,8.42,0,0,0-5.33-4.79A11.6,11.6,0,0,0,715.82,508.41Z" transform="translate(-279.5 -451.95)"/><path class="cls-1" d="M776.4,521.68a19,19,0,0,1-1.34,7.32,16.42,16.42,0,0,1-3.68,5.56,16.07,16.07,0,0,1-5.52,3.53,19.07,19.07,0,0,1-6.86,1.22,19.28,19.28,0,0,1-6.94-1.22,16,16,0,0,1-5.53-3.53,16.56,16.56,0,0,1-3.68-5.56,19.13,19.13,0,0,1-1.34-7.32V500.43h10.28v22.09a7,7,0,0,0,2.07,5.33,7.21,7.21,0,0,0,5.14,2,7.12,7.12,0,0,0,5.06-2,7,7,0,0,0,2.07-5.33V500.43H776.4Z" transform="translate(-279.5 -451.95)"/><path class="cls-1" d="M797.87,499.59a20,20,0,0,1,6.6,1,14.13,14.13,0,0,1,5.14,3.06,13.83,13.83,0,0,1,3.33,5.07,19.18,19.18,0,0,1,1.19,7.09v22.54H804.7v-3.68a13.88,13.88,0,0,1-5,3.38,17.45,17.45,0,0,1-6.71,1.22,16.23,16.23,0,0,1-5.52-.88,12.65,12.65,0,0,1-4.14-2.37,10,10,0,0,1-2.57-3.57,11.4,11.4,0,0,1-.88-4.53,9.58,9.58,0,0,1,3.87-8.12q3.87-2.93,10.55-2.92h9.51v-1.68a6.61,6.61,0,0,0-1.77-4.91q-1.76-1.77-5.37-1.77a10.24,10.24,0,0,0-5.32,1.38,22.63,22.63,0,0,0-4.72,3.84l-5.29-6.37A20.41,20.41,0,0,1,797.87,499.59Zm-2.07,32.13a8.33,8.33,0,0,0,5.72-2.07,6.91,6.91,0,0,0,2.34-5.44v-.46h-8.13q-5.29,0-5.29,3.83a3.57,3.57,0,0,0,1.49,3.07A6.46,6.46,0,0,0,795.8,531.72Z" transform="translate(-279.5 -451.95)"/><path class="cls-1" d="M558.34,598.31H547.22l-2.84-6.6h-20.7l-2.84,6.6H509.72l22.62-51.54h3.38ZM527.28,583.2H540.7L534,566.1Z" transform="translate(-279.5 -451.95)"/><path class="cls-1" d="M576,559.5a16.89,16.89,0,0,1,7.24,1.46,13.25,13.25,0,0,1,5.1,4.14v-4.75h9.51v33.74a21.89,21.89,0,0,1-1.46,8.36,15.86,15.86,0,0,1-10.19,9.43,25.82,25.82,0,0,1-7.9,1.15A26.42,26.42,0,0,1,567.43,611a29.16,29.16,0,0,1-7.86-5l5.44-7.2a29,29,0,0,0,5.75,3.56,15.51,15.51,0,0,0,6.6,1.34,11.83,11.83,0,0,0,7.28-2.18c1.94-1.46,2.92-3.72,2.92-6.79v-2.15a12.88,12.88,0,0,1-5,3.45,17.84,17.84,0,0,1-6.55,1.16,19.08,19.08,0,0,1-7.29-1.39,17,17,0,0,1-5.79-3.83,17.64,17.64,0,0,1-3.79-5.94,22.19,22.19,0,0,1,0-15.46,17,17,0,0,1,9.62-9.7A19.32,19.32,0,0,1,576,559.5Zm2,8.82a11.2,11.2,0,0,0-3.8.65,8.72,8.72,0,0,0-3.1,1.92A9.11,9.11,0,0,0,569,574a10.86,10.86,0,0,0-.77,4.21,11.19,11.19,0,0,0,.77,4.26,9.53,9.53,0,0,0,2.11,3.22,8.87,8.87,0,0,0,3.1,2,10.25,10.25,0,0,0,3.76.69,10.55,10.55,0,0,0,3.57-.61,8.65,8.65,0,0,0,3.06-1.88,9.45,9.45,0,0,0,2.19-3.22,11.45,11.45,0,0,0,.84-4.56,10.94,10.94,0,0,0-.84-4.49,8.71,8.71,0,0,0-2.22-3.07,8.81,8.81,0,0,0-3.11-1.72A11.6,11.6,0,0,0,578,568.32Z" transform="translate(-279.5 -451.95)"/><path class="cls-1" d="M621.83,559.5a18.72,18.72,0,0,1,7.29,1.38,17.1,17.1,0,0,1,5.64,3.76,16.58,16.58,0,0,1,3.6,5.6,18.8,18.8,0,0,1,1.27,6.9,21.59,21.59,0,0,1-.23,3.14c-.16,1-.31,1.87-.47,2.53H612.25a9.4,9.4,0,0,0,3.83,5.6,12.17,12.17,0,0,0,7,1.92,15,15,0,0,0,5.64-1,22.35,22.35,0,0,0,4.94-2.79l4.22,7a25.73,25.73,0,0,1-7,4.18,21.69,21.69,0,0,1-8.13,1.5,22.31,22.31,0,0,1-8.35-1.54,19.92,19.92,0,0,1-6.6-4.22,19.65,19.65,0,0,1-4.33-6.28,19.35,19.35,0,0,1-1.57-7.83,19.67,19.67,0,0,1,5.75-14.11A19.49,19.49,0,0,1,614,561,19.93,19.93,0,0,1,621.83,559.5Zm-.38,8.36a8.88,8.88,0,0,0-5.83,2,10.46,10.46,0,0,0-3.37,5.64h17.41a7.5,7.5,0,0,0-2.53-5.68A8.61,8.61,0,0,0,621.45,567.86Z" transform="translate(-279.5 -451.95)"/><path class="cls-1" d="M664.16,559.5a15.59,15.59,0,0,1,6,1.11,12.85,12.85,0,0,1,4.52,3.11,13.88,13.88,0,0,1,2.84,4.79,18.67,18.67,0,0,1,1,6.25v23.55H668.23V576.14a7.47,7.47,0,0,0-1.92-5.33,6.75,6.75,0,0,0-5.14-2,7,7,0,0,0-5.21,2,7.31,7.31,0,0,0-2,5.33v22.17H643.61v-38h9.51v3.52a14.94,14.94,0,0,1,4.76-3.18A15.77,15.77,0,0,1,664.16,559.5Z" transform="translate(-279.5 -451.95)"/><path class="cls-1" d="M702.66,559.5a18.2,18.2,0,0,1,16.49,9.36l-7.21,5.6a15.93,15.93,0,0,0-3.84-4,9,9,0,0,0-5.36-1.54,9.6,9.6,0,0,0-7.14,3,9.94,9.94,0,0,0-2,3.25,11.41,11.41,0,0,0-.73,4.11,11.7,11.7,0,0,0,.73,4.14,9.86,9.86,0,0,0,2,3.3,9.64,9.64,0,0,0,7.14,3,8.94,8.94,0,0,0,5.36-1.54,15.1,15.1,0,0,0,3.76-3.91l7.21,5.52a18,18,0,0,1-16.41,9.44,20.82,20.82,0,0,1-8-1.54,20.12,20.12,0,0,1-6.48-4.22,19.37,19.37,0,0,1-4.34-6.32,19.6,19.6,0,0,1-1.57-7.86,19.3,19.3,0,0,1,1.57-7.82,19,19,0,0,1,4.34-6.25,20.35,20.35,0,0,1,6.48-4.18A20.64,20.64,0,0,1,702.66,559.5Z" transform="translate(-279.5 -451.95)"/><path class="cls-1" d="M741.38,601.6a21.6,21.6,0,0,1-6.21,8.67,14.19,14.19,0,0,1-8.89,2.76,22.67,22.67,0,0,1-3.45-.27c-1.18-.18-2.28-.4-3.3-.65v-8.67c.92.11,1.74.18,2.45.23s1.41.08,2.07.08a9.85,9.85,0,0,0,4.41-1c1.31-.64,2.44-2,3.42-4.18l1.15-2.53-14.57-35.73h11l9.2,25,9.89-25h11Z" transform="translate(-279.5 -451.95)"/></svg>