<svg width="23" height="23" viewBox="0 0 23 23" fill="none" xmlns="http://www.w3.org/2000/svg">
<path d="M10 3.50001H3C2.46957 3.50001 1.96086 3.71073 1.58579 4.0858C1.21071 4.46087 1 4.96958 1 5.50001V19.5C1 20.0304 1.21071 20.5392 1.58579 20.9142C1.96086 21.2893 2.46957 21.5 3 21.5H17C17.5304 21.5 18.0391 21.2893 18.4142 20.9142C18.7893 20.5392 19 20.0304 19 19.5V12.5M17.5 2.00001C17.8978 1.60219 18.4374 1.37869 19 1.37869C19.5626 1.37869 20.1022 1.60219 20.5 2.00001C20.8978 2.39784 21.1213 2.9374 21.1213 3.50001C21.1213 4.06262 20.8978 4.60219 20.5 5.00001L11 14.5L7 15.5L8 11.5L17.5 2.00001Z" stroke="#00FFCC" stroke-width="2" stroke-linecap="round"/>
</svg>
