<!DOCTYPE svg PUBLIC "-//W3C//DTD SVG 1.1//EN" "http://www.w3.org/Graphics/SVG/1.1/DTD/svg11.dtd">
<!-- Uploaded to: SVG Repo, www.svgrepo.com, Transformed by: SVG Repo Mixer Tools -->
<svg fill="#ffffff" height="800px" width="800px" version="1.1" id="Layer_1" xmlns="http://www.w3.org/2000/svg" xmlns:xlink="http://www.w3.org/1999/xlink" viewBox="0 0 512 512" xml:space="preserve" stroke="#ffffff">
<g id="SVGRepo_bgCarrier" stroke-width="0"/>
<g id="SVGRepo_tracerCarrier" stroke-linecap="round" stroke-linejoin="round"/>
<g id="SVGRepo_iconCarrier"> <g> <g> <path d="M472.969,146.88v0.001c-1.844-3.457-3.967-6.49-5.807-9.109c-1.711-2.436-3.651-5.199-4.197-6.748 c-0.487-1.38-0.656-4.847-0.79-7.634c-0.358-7.378-0.85-17.483-7.189-26.256c-5.752-7.959-14.122-11.475-20.847-14.298 c-3.011-1.264-6.423-2.698-7.752-3.872c-0.937-0.849-2.778-4.217-3.998-6.447c-3.494-6.39-7.841-14.343-16.349-19.6 c-7.865-4.86-16.454-5.299-23.356-5.652c-3.142-0.161-7.052-0.361-8.537-1.015c-1.164-0.548-3.928-3.322-5.758-5.159 c-4.95-4.968-11.109-11.151-20.24-13.938c-8.676-2.652-16.968-1.072-23.632,0.198c-2.919,0.555-6.919,1.315-8.406,1.03 c-1.273-0.281-4.611-2.436-6.821-3.865c-5.791-3.74-13-8.395-22.302-9.262c-8.974-0.836-16.757,2.313-23.003,4.843 c-2.744,1.111-6.5,2.632-7.967,2.632c-1.468,0-5.225-1.52-7.968-2.631c-6.247-2.531-14.03-5.671-23.004-4.843 c-9.302,0.866-16.511,5.522-22.303,9.263c-2.208,1.426-5.545,3.582-6.807,3.86c-1.505,0.286-5.496-0.472-8.415-1.027 c-6.663-1.269-14.959-2.847-23.631-0.198c-9.129,2.788-15.289,8.971-20.24,13.938c-1.829,1.835-4.592,4.609-5.748,5.154 c-1.495,0.658-5.405,0.858-8.547,1.018c-6.901,0.352-15.49,0.792-23.355,5.651c-8.509,5.258-12.857,13.21-16.349,19.598 c-1.22,2.229-3.061,5.598-3.997,6.446c-1.329,1.177-4.742,2.609-7.752,3.872c-6.726,2.824-15.096,6.339-20.848,14.299 c-6.34,8.773-6.832,18.877-7.191,26.256c-0.135,2.787-0.304,6.254-0.791,7.637c-0.545,1.55-2.485,4.312-4.197,6.748 c-1.84,2.619-3.962,5.652-5.807,9.11H0v16.696c0,56.721,15.347,115.1,43.213,164.383c28.247,49.958,67.367,87.988,113.586,110.571 v58.352h198.402v-58.339c46.219-22.581,85.341-60.616,113.591-110.585C496.656,278.673,512,220.294,512,163.575V146.88H472.969z M80.562,142.115c2.108-5.98,2.394-11.893,2.649-17.107c0.131-2.692,0.325-6.676,0.875-8.186c1.235-0.892,4.515-2.267,6.739-3.202 c5.125-2.152,11.5-4.828,16.951-9.652c5.287-4.676,8.412-10.391,11.169-15.435c1.274-2.331,3.384-6.191,4.511-7.139 c1.336-0.462,5.089-0.654,7.602-0.782c5.874-0.302,13.185-0.674,20.297-3.807c6.849-3.016,11.893-8.078,15.945-12.146 c1.981-1.989,4.958-4.976,6.265-5.542c1.386-0.169,5.172,0.553,7.707,1.036c5.881,1.12,13.206,2.512,20.985,1.012 c7.539-1.456,13.67-5.415,18.597-8.598c2.34-1.51,5.858-3.782,7.225-4.055c1.38,0.083,5.014,1.554,7.435,2.534 c5.582,2.26,12.528,5.073,20.5,5.073c7.972,0,14.918-2.813,20.501-5.074c2.412-0.976,6.031-2.441,7.421-2.533 c1.419,0.298,4.91,2.552,7.236,4.054c4.927,3.182,11.06,7.143,18.601,8.599c7.779,1.499,15.102,0.108,20.985-1.012 c2.527-0.482,6.302-1.198,7.697-1.037c1.348,0.598,4.304,3.564,6.276,5.543c4.053,4.067,9.097,9.129,15.945,12.146 c7.113,3.132,14.423,3.506,20.296,3.808c2.507,0.128,6.245,0.319,7.591,0.779c1.163,0.997,3.257,4.826,4.523,7.143 c2.758,5.043,5.882,10.76,11.167,15.435c5.453,4.825,11.829,7.502,16.953,9.653c2.225,0.934,5.501,2.31,6.738,3.201 c0.549,1.512,0.742,5.495,0.874,8.186c0.254,5.216,0.54,11.126,2.647,17.106c0.591,1.678,1.293,3.256,2.052,4.764H78.51 C79.269,145.371,79.971,143.793,80.562,142.115z M321.81,463.493H190.19v-19.161h131.62V463.493z M439.723,311.525 c-25.939,45.884-61.94,80.19-104.263,99.414H176.569c-42.336-19.223-78.346-53.532-104.289-99.415 c-22.35-39.529-35.751-85.565-38.401-131.253h444.243C475.472,225.958,462.072,271.996,439.723,311.525z"/> </g> </g> <g> <g> <path d="M135.393,294.577c-7.53-12.739-11.966-27.077-11.042-35.679l-33.199-3.567c-1.735,16.14,3.913,36.637,15.496,56.234 c17.171,29.056,35.655,36.643,42.803,38.556l8.633-32.256C152.976,316.499,143.696,308.628,135.393,294.577z"/> </g> </g> </g>
</svg>