<svg width="22" height="17" viewBox="0 0 22 17" fill="none" xmlns="http://www.w3.org/2000/svg">
<path fill-rule="evenodd" clip-rule="evenodd" d="M1.26884 1.01884C1.76113 0.526562 2.42881 0.25 3.125 0.25H12.125C12.8212 0.25 13.4889 0.526562 13.9812 1.01884C14.4734 1.51113 14.75 2.17881 14.75 2.875V4.75C14.75 5.16421 14.4142 5.5 14 5.5C13.5858 5.5 13.25 5.16421 13.25 4.75V2.875C13.25 2.57663 13.1315 2.29048 12.9205 2.0795C12.7095 1.86853 12.4234 1.75 12.125 1.75H3.125C2.82663 1.75 2.54048 1.86853 2.3295 2.0795C2.11853 2.29048 2 2.57663 2 2.875V14.125C2 14.4234 2.11853 14.7095 2.3295 14.9205C2.54048 15.1315 2.82663 15.25 3.125 15.25H12.125C12.4234 15.25 12.7095 15.1315 12.9205 14.9205C13.1315 14.7095 13.25 14.4234 13.25 14.125V12.25C13.25 11.8358 13.5858 11.5 14 11.5C14.4142 11.5 14.75 11.8358 14.75 12.25V14.125C14.75 14.8212 14.4734 15.4889 13.9812 15.9812C13.4889 16.4734 12.8212 16.75 12.125 16.75H3.125C2.42881 16.75 1.76113 16.4734 1.26884 15.9812C0.776562 15.4889 0.5 14.8212 0.5 14.125V2.875C0.5 2.17881 0.776562 1.51113 1.26884 1.01884ZM16.4697 4.21967C16.7626 3.92678 17.2374 3.92678 17.5303 4.21967L21.2803 7.96967C21.3494 8.03875 21.4051 8.12125 21.4431 8.21291C21.4751 8.29009 21.4946 8.37376 21.499 8.4614C21.4997 8.47419 21.5 8.48706 21.5 8.5C21.5 8.69194 21.4268 8.88388 21.2803 9.03033C21.1446 9.16605 20.9571 9.25 20.75 9.25H18.9393L19.6893 8.5L18.9393 7.75H7.95312C7.53891 7.75 7.20312 8.08579 7.20312 8.5C7.20312 8.91421 7.53891 9.25 7.95312 9.25H18.9393L16.4697 11.7197C16.1768 12.0126 16.1768 12.4874 16.4697 12.7803C16.7626 13.0732 17.2374 13.0732 17.5303 12.7803L21.2803 9.03033M18.9393 7.75L16.4697 5.28033C16.1768 4.98744 16.1768 4.51256 16.4697 4.21967" fill="white"/>
</svg>
