<svg width="88" height="36" viewBox="0 0 88 36" fill="none" xmlns="http://www.w3.org/2000/svg">
<path d="M10.352 15H8.032L7.44 13.624H3.12L2.528 15H0.208L4.928 4.248H5.632L10.352 15ZM3.872 11.848H6.672L5.28 8.28L3.872 11.848ZM15.3019 6.904C16.0912 6.904 16.7739 7.08 17.3499 7.432C17.9365 7.784 18.4005 8.25867 18.7419 8.856L17.2379 10.024C17.0032 9.68267 16.7365 9.40533 16.4379 9.192C16.1392 8.97867 15.7659 8.872 15.3179 8.872C15.0085 8.872 14.7259 8.93067 14.4699 9.048C14.2245 9.15467 14.0112 9.304 13.8299 9.496C13.6485 9.688 13.5045 9.91733 13.3979 10.184C13.3019 10.44 13.2539 10.7227 13.2539 11.032C13.2539 11.3413 13.3019 11.6293 13.3979 11.896C13.5045 12.1627 13.6485 12.392 13.8299 12.584C14.0112 12.776 14.2245 12.9307 14.4699 13.048C14.7259 13.1547 15.0085 13.208 15.3179 13.208C15.7659 13.208 16.1392 13.1013 16.4379 12.888C16.7365 12.6747 16.9979 12.4027 17.2219 12.072L18.7259 13.224C18.3952 13.8213 17.9365 14.3013 17.3499 14.664C16.7739 15.016 16.0912 15.192 15.3019 15.192C14.7045 15.192 14.1445 15.0853 13.6219 14.872C13.1099 14.6587 12.6619 14.3653 12.2779 13.992C11.8939 13.6187 11.5899 13.1813 11.3659 12.68C11.1525 12.168 11.0459 11.6187 11.0459 11.032C11.0459 10.4453 11.1525 9.90133 11.3659 9.4C11.5899 8.89867 11.8939 8.46667 12.2779 8.104C12.6619 7.73067 13.1099 7.43733 13.6219 7.224C14.1445 7.01067 14.7045 6.904 15.3019 6.904ZM23.9578 6.904C24.5444 6.904 25.0938 7.01067 25.6058 7.224C26.1284 7.43733 26.5818 7.73067 26.9658 8.104C27.3498 8.46667 27.6538 8.89867 27.8778 9.4C28.1018 9.90133 28.2138 10.4453 28.2138 11.032C28.2138 11.6187 28.1018 12.168 27.8778 12.68C27.6538 13.1813 27.3498 13.6187 26.9658 13.992C26.5818 14.3547 26.1284 14.6427 25.6058 14.856C25.0938 15.0693 24.5444 15.176 23.9578 15.176C23.3711 15.176 22.8164 15.0693 22.2938 14.856C21.7818 14.6427 21.3338 14.3547 20.9498 13.992C20.5658 13.6187 20.2618 13.1813 20.0378 12.68C19.8244 12.168 19.7178 11.6187 19.7178 11.032C19.7178 10.4453 19.8244 9.90133 20.0378 9.4C20.2618 8.89867 20.5658 8.46667 20.9498 8.104C21.3338 7.73067 21.7818 7.43733 22.2938 7.224C22.8058 7.01067 23.3604 6.904 23.9578 6.904ZM23.9578 8.872C23.3498 8.872 22.8538 9.08 22.4698 9.496C22.0964 9.90133 21.9098 10.4187 21.9098 11.048C21.9098 11.6773 22.0964 12.1947 22.4698 12.6C22.8538 12.9947 23.3498 13.192 23.9578 13.192C24.2458 13.192 24.5124 13.1387 24.7578 13.032C25.0138 12.9253 25.2324 12.776 25.4138 12.584C25.5951 12.392 25.7391 12.168 25.8458 11.912C25.9524 11.6453 26.0058 11.3573 26.0058 11.048C26.0058 10.7387 25.9524 10.4507 25.8458 10.184C25.7391 9.91733 25.5951 9.688 25.4138 9.496C25.2324 9.304 25.0138 9.15467 24.7578 9.048C24.5124 8.93067 24.2458 8.872 23.9578 8.872ZM34.1881 6.904C34.6468 6.904 35.0628 6.984 35.4361 7.144C35.8095 7.29333 36.1241 7.50667 36.3801 7.784C36.6361 8.06133 36.8335 8.39733 36.9721 8.792C37.1108 9.176 37.1801 9.608 37.1801 10.088V15H35.0361V10.376C35.0361 9.91733 34.9028 9.54933 34.6361 9.272C34.3695 8.984 34.0121 8.84 33.5641 8.84C33.1161 8.84 32.7535 8.984 32.4761 9.272C32.1988 9.54933 32.0601 9.91733 32.0601 10.376V15H29.9001V7.08H31.8841V7.816C32.1615 7.53867 32.4921 7.32 32.8761 7.16C33.2601 6.98933 33.6975 6.904 34.1881 6.904ZM43.0675 6.904C43.8568 6.904 44.5395 7.08 45.1155 7.432C45.7022 7.784 46.1662 8.25867 46.5075 8.856L45.0035 10.024C44.7688 9.68267 44.5022 9.40533 44.2035 9.192C43.9048 8.97867 43.5315 8.872 43.0835 8.872C42.7742 8.872 42.4915 8.93067 42.2355 9.048C41.9902 9.15467 41.7768 9.304 41.5955 9.496C41.4142 9.688 41.2702 9.91733 41.1635 10.184C41.0675 10.44 41.0195 10.7227 41.0195 11.032C41.0195 11.3413 41.0675 11.6293 41.1635 11.896C41.2702 12.1627 41.4142 12.392 41.5955 12.584C41.7768 12.776 41.9902 12.9307 42.2355 13.048C42.4915 13.1547 42.7742 13.208 43.0835 13.208C43.5315 13.208 43.9048 13.1013 44.2035 12.888C44.5022 12.6747 44.7635 12.4027 44.9875 12.072L46.4915 13.224C46.1608 13.8213 45.7022 14.3013 45.1155 14.664C44.5395 15.016 43.8568 15.192 43.0675 15.192C42.4702 15.192 41.9102 15.0853 41.3875 14.872C40.8755 14.6587 40.4275 14.3653 40.0435 13.992C39.6595 13.6187 39.3555 13.1813 39.1315 12.68C38.9182 12.168 38.8115 11.6187 38.8115 11.032C38.8115 10.4453 38.9182 9.90133 39.1315 9.4C39.3555 8.89867 39.6595 8.46667 40.0435 8.104C40.4275 7.73067 40.8755 7.43733 41.3875 7.224C41.9102 7.01067 42.4702 6.904 43.0675 6.904ZM51.3356 6.904C51.837 6.904 52.2956 6.97867 52.7116 7.128C53.1276 7.26667 53.485 7.48 53.7836 7.768C54.0823 8.04533 54.3116 8.39733 54.4716 8.824C54.6423 9.24 54.7276 9.73067 54.7276 10.296V15H52.7596V14.232C52.4823 14.5307 52.1356 14.7653 51.7196 14.936C51.3143 15.1067 50.8503 15.192 50.3276 15.192C49.901 15.192 49.517 15.128 49.1756 15C48.8343 14.8827 48.5463 14.7227 48.3116 14.52C48.077 14.3067 47.8956 14.056 47.7676 13.768C47.6503 13.48 47.5916 13.1653 47.5916 12.824C47.5916 12.0987 47.8583 11.5333 48.3916 11.128C48.9356 10.7227 49.6716 10.52 50.5996 10.52H52.5836V10.168C52.5836 9.73067 52.461 9.38933 52.2156 9.144C51.9703 8.89867 51.597 8.776 51.0956 8.776C50.6796 8.776 50.3063 8.872 49.9756 9.064C49.6556 9.256 49.3303 9.52267 48.9996 9.864L47.8956 8.536C48.7916 7.448 49.9383 6.904 51.3356 6.904ZM50.9036 13.608C51.373 13.608 51.7676 13.464 52.0876 13.176C52.4183 12.888 52.5836 12.5093 52.5836 12.04V11.944H50.8876C50.1516 11.944 49.7836 12.2107 49.7836 12.744C49.7836 13.0213 49.885 13.2347 50.0876 13.384C50.301 13.5333 50.573 13.608 50.9036 13.608ZM60.1984 6.904C60.7744 6.904 61.2757 7.00533 61.7024 7.208C62.1397 7.41067 62.497 7.69867 62.7744 8.072V7.08H64.7584V14.12C64.7584 14.792 64.657 15.3733 64.4544 15.864C64.2517 16.3547 63.969 16.7653 63.6064 17.096C63.2544 17.4267 62.8277 17.672 62.3264 17.832C61.825 17.992 61.2757 18.072 60.6784 18.072C59.8144 18.072 59.057 17.928 58.4064 17.64C57.7664 17.352 57.2224 17.0053 56.7744 16.6L57.9104 15.096C58.305 15.4053 58.705 15.6507 59.1104 15.832C59.5157 16.024 59.9744 16.12 60.4864 16.12C61.0944 16.12 61.601 15.9653 62.0064 15.656C62.4117 15.3573 62.6144 14.888 62.6144 14.248V13.8C62.3264 14.12 61.9744 14.36 61.5584 14.52C61.153 14.68 60.6997 14.76 60.1984 14.76C59.6544 14.76 59.1477 14.664 58.6784 14.472C58.209 14.28 57.8037 14.0133 57.4624 13.672C57.1317 13.3307 56.8704 12.92 56.6784 12.44C56.4864 11.9493 56.3904 11.4107 56.3904 10.824C56.3904 10.2267 56.4864 9.688 56.6784 9.208C56.8704 8.728 57.137 8.31733 57.4784 7.976C57.8197 7.63467 58.2197 7.37333 58.6784 7.192C59.1477 7 59.6544 6.904 60.1984 6.904ZM60.6144 8.744C60.337 8.744 60.0704 8.792 59.8144 8.888C59.569 8.97333 59.3557 9.10667 59.1744 9.288C58.993 9.45867 58.849 9.672 58.7424 9.928C58.6357 10.184 58.5824 10.4773 58.5824 10.808C58.5824 11.1387 58.6357 11.4373 58.7424 11.704C58.849 11.96 58.993 12.184 59.1744 12.376C59.3664 12.5573 59.585 12.696 59.8304 12.792C60.0757 12.888 60.337 12.936 60.6144 12.936C60.8704 12.936 61.1157 12.8933 61.3504 12.808C61.5957 12.7227 61.809 12.5947 61.9904 12.424C62.1824 12.2427 62.337 12.0187 62.4544 11.752C62.5717 11.4747 62.6304 11.1547 62.6304 10.792C62.6304 10.4293 62.5717 10.12 62.4544 9.864C62.337 9.59733 62.1824 9.384 61.9904 9.224C61.7984 9.05333 61.5797 8.93067 61.3344 8.856C61.0997 8.78133 60.8597 8.744 60.6144 8.744ZM74.1001 11.512C74.1001 12.0773 74.0041 12.5893 73.8121 13.048C73.6308 13.496 73.3748 13.88 73.0441 14.2C72.7241 14.52 72.3401 14.7653 71.8921 14.936C71.4548 15.1067 70.9801 15.192 70.4681 15.192C69.9455 15.192 69.4601 15.1067 69.0121 14.936C68.5748 14.7653 68.1908 14.52 67.8601 14.2C67.5401 13.88 67.2841 13.496 67.0921 13.048C66.9108 12.5893 66.8201 12.0773 66.8201 11.512V7.08H68.9641V11.688C68.9641 12.1573 69.1081 12.5307 69.3961 12.808C69.6841 13.0747 70.0415 13.208 70.4681 13.208C70.8841 13.208 71.2361 13.0747 71.5241 12.808C71.8121 12.5307 71.9561 12.1573 71.9561 11.688V7.08H74.1001V11.512ZM79.4294 6.904C79.9307 6.904 80.3894 6.97867 80.8054 7.128C81.2214 7.26667 81.5787 7.48 81.8774 7.768C82.176 8.04533 82.4054 8.39733 82.5654 8.824C82.736 9.24 82.8214 9.73067 82.8214 10.296V15H80.8534V14.232C80.576 14.5307 80.2294 14.7653 79.8134 14.936C79.408 15.1067 78.944 15.192 78.4214 15.192C77.9947 15.192 77.6107 15.128 77.2694 15C76.928 14.8827 76.64 14.7227 76.4054 14.52C76.1707 14.3067 75.9894 14.056 75.8614 13.768C75.744 13.48 75.6854 13.1653 75.6854 12.824C75.6854 12.0987 75.952 11.5333 76.4854 11.128C77.0294 10.7227 77.7654 10.52 78.6934 10.52H80.6774V10.168C80.6774 9.73067 80.5547 9.38933 80.3094 9.144C80.064 8.89867 79.6907 8.776 79.1894 8.776C78.7734 8.776 78.4 8.872 78.0694 9.064C77.7494 9.256 77.424 9.52267 77.0934 9.864L75.9894 8.536C76.8854 7.448 78.032 6.904 79.4294 6.904ZM78.9974 13.608C79.4667 13.608 79.8614 13.464 80.1814 13.176C80.512 12.888 80.6774 12.5093 80.6774 12.04V11.944H78.9814C78.2454 11.944 77.8774 12.2107 77.8774 12.744C77.8774 13.0213 77.9787 13.2347 78.1814 13.384C78.3947 13.5333 78.6667 13.608 78.9974 13.608Z" fill="#00FFCC"/>
<path d="M24.352 31H22.032L21.44 29.624H17.12L16.528 31H14.208L18.928 20.248H19.632L24.352 31ZM17.872 27.848H20.672L19.28 24.28L17.872 27.848ZM28.8859 22.904C29.4619 22.904 29.9632 23.0053 30.3899 23.208C30.8272 23.4107 31.1845 23.6987 31.4619 24.072V23.08H33.4459V30.12C33.4459 30.792 33.3445 31.3733 33.1419 31.864C32.9392 32.3547 32.6565 32.7653 32.2939 33.096C31.9419 33.4267 31.5152 33.672 31.0139 33.832C30.5125 33.992 29.9632 34.072 29.3659 34.072C28.5019 34.072 27.7445 33.928 27.0939 33.64C26.4539 33.352 25.9099 33.0053 25.4619 32.6L26.5979 31.096C26.9925 31.4053 27.3925 31.6507 27.7979 31.832C28.2032 32.024 28.6619 32.12 29.1739 32.12C29.7819 32.12 30.2885 31.9653 30.6939 31.656C31.0992 31.3573 31.3019 30.888 31.3019 30.248V29.8C31.0139 30.12 30.6619 30.36 30.2459 30.52C29.8405 30.68 29.3872 30.76 28.8859 30.76C28.3419 30.76 27.8352 30.664 27.3659 30.472C26.8965 30.28 26.4912 30.0133 26.1499 29.672C25.8192 29.3307 25.5579 28.92 25.3659 28.44C25.1739 27.9493 25.0779 27.4107 25.0779 26.824C25.0779 26.2267 25.1739 25.688 25.3659 25.208C25.5579 24.728 25.8245 24.3173 26.1659 23.976C26.5072 23.6347 26.9072 23.3733 27.3659 23.192C27.8352 23 28.3419 22.904 28.8859 22.904ZM29.3019 24.744C29.0245 24.744 28.7579 24.792 28.5019 24.888C28.2565 24.9733 28.0432 25.1067 27.8619 25.288C27.6805 25.4587 27.5365 25.672 27.4299 25.928C27.3232 26.184 27.2699 26.4773 27.2699 26.808C27.2699 27.1387 27.3232 27.4373 27.4299 27.704C27.5365 27.96 27.6805 28.184 27.8619 28.376C28.0539 28.5573 28.2725 28.696 28.5179 28.792C28.7632 28.888 29.0245 28.936 29.3019 28.936C29.5579 28.936 29.8032 28.8933 30.0379 28.808C30.2832 28.7227 30.4965 28.5947 30.6779 28.424C30.8699 28.2427 31.0245 28.0187 31.1419 27.752C31.2592 27.4747 31.3179 27.1547 31.3179 26.792C31.3179 26.4293 31.2592 26.12 31.1419 25.864C31.0245 25.5973 30.8699 25.384 30.6779 25.224C30.4859 25.0533 30.2672 24.9307 30.0219 24.856C29.7872 24.7813 29.5472 24.744 29.3019 24.744ZM39.2996 22.904C39.8543 22.904 40.361 23 40.8196 23.192C41.2783 23.384 41.6676 23.6453 41.9876 23.976C42.3183 24.3067 42.569 24.696 42.7396 25.144C42.921 25.592 43.0116 26.072 43.0116 26.584C43.0116 26.808 42.9956 27.0267 42.9636 27.24C42.9316 27.4533 42.8996 27.6293 42.8676 27.768H37.2996C37.4383 28.28 37.705 28.6693 38.0996 28.936C38.4943 29.2027 38.9796 29.336 39.5556 29.336C39.9823 29.336 40.3716 29.2667 40.7236 29.128C41.0863 28.9787 41.433 28.7813 41.7636 28.536L42.6436 30.008C42.1956 30.3813 41.7103 30.6747 41.1876 30.888C40.665 31.0907 40.0996 31.192 39.4916 31.192C38.8623 31.192 38.281 31.0853 37.7476 30.872C37.2143 30.6587 36.7556 30.3653 36.3716 29.992C35.9876 29.6187 35.6836 29.1813 35.4596 28.68C35.2463 28.1787 35.1396 27.6347 35.1396 27.048C35.1396 26.4613 35.2463 25.9173 35.4596 25.416C35.673 24.9147 35.9663 24.4773 36.3396 24.104C36.713 23.7307 37.1503 23.4373 37.6516 23.224C38.1636 23.0107 38.713 22.904 39.2996 22.904ZM39.2196 24.648C38.7503 24.648 38.345 24.792 38.0036 25.08C37.6623 25.3573 37.4276 25.7467 37.2996 26.248H40.9316C40.9103 25.736 40.7343 25.3413 40.4036 25.064C40.073 24.7867 39.6783 24.648 39.2196 24.648ZM48.985 22.904C49.4437 22.904 49.8597 22.984 50.233 23.144C50.6063 23.2933 50.921 23.5067 51.177 23.784C51.433 24.0613 51.6303 24.3973 51.769 24.792C51.9077 25.176 51.977 25.608 51.977 26.088V31H49.833V26.376C49.833 25.9173 49.6997 25.5493 49.433 25.272C49.1663 24.984 48.809 24.84 48.361 24.84C47.913 24.84 47.5503 24.984 47.273 25.272C46.9957 25.5493 46.857 25.9173 46.857 26.376V31H44.697V23.08H46.681V23.816C46.9583 23.5387 47.289 23.32 47.673 23.16C48.057 22.9893 48.4943 22.904 48.985 22.904ZM57.8644 22.904C58.6537 22.904 59.3364 23.08 59.9124 23.432C60.499 23.784 60.963 24.2587 61.3044 24.856L59.8004 26.024C59.5657 25.6827 59.299 25.4053 59.0004 25.192C58.7017 24.9787 58.3284 24.872 57.8804 24.872C57.571 24.872 57.2884 24.9307 57.0324 25.048C56.787 25.1547 56.5737 25.304 56.3924 25.496C56.211 25.688 56.067 25.9173 55.9604 26.184C55.8644 26.44 55.8164 26.7227 55.8164 27.032C55.8164 27.3413 55.8644 27.6293 55.9604 27.896C56.067 28.1627 56.211 28.392 56.3924 28.584C56.5737 28.776 56.787 28.9307 57.0324 29.048C57.2884 29.1547 57.571 29.208 57.8804 29.208C58.3284 29.208 58.7017 29.1013 59.0004 28.888C59.299 28.6747 59.5604 28.4027 59.7844 28.072L61.2884 29.224C60.9577 29.8213 60.499 30.3013 59.9124 30.664C59.3364 31.016 58.6537 31.192 57.8644 31.192C57.267 31.192 56.707 31.0853 56.1844 30.872C55.6724 30.6587 55.2244 30.3653 54.8404 29.992C54.4564 29.6187 54.1524 29.1813 53.9284 28.68C53.715 28.168 53.6084 27.6187 53.6084 27.032C53.6084 26.4453 53.715 25.9013 53.9284 25.4C54.1524 24.8987 54.4564 24.4667 54.8404 24.104C55.2244 23.7307 55.6724 23.4373 56.1844 23.224C56.707 23.0107 57.267 22.904 57.8644 22.904ZM66.7885 31.688C66.4258 32.5093 65.9938 33.112 65.4925 33.496C64.9912 33.88 64.3725 34.072 63.6365 34.072C63.4018 34.072 63.1618 34.0507 62.9165 34.008C62.6712 33.976 62.4418 33.9333 62.2285 33.88V32.072C62.4205 32.0933 62.5912 32.1093 62.7405 32.12C62.8898 32.1307 63.0338 32.136 63.1725 32.136C63.5138 32.136 63.8178 32.0667 64.0845 31.928C64.3618 31.8 64.6018 31.512 64.8045 31.064L65.0445 30.536L62.0045 23.08H64.3085L66.2285 28.296L68.2925 23.08H70.5805L66.7885 31.688Z" fill="#00FFCC"/>
</svg>
