<svg width="24" height="25" viewBox="0 0 24 25" fill="none" xmlns="http://www.w3.org/2000/svg">
<g clip-path="url(#clip0_180_81)">
<path d="M9 9.5C9.00011 8.95003 9.15139 8.41067 9.43732 7.94087C9.72325 7.47107 10.1328 7.08891 10.6213 6.83615C11.1097 6.5834 11.6583 6.46978 12.2069 6.50772C12.7556 6.54565 13.2833 6.73368 13.7323 7.05125C14.1813 7.36882 14.5344 7.80371 14.7529 8.30839C14.9715 8.81307 15.0471 9.36812 14.9715 9.91287C14.8959 10.4576 14.6721 10.9711 14.3244 11.3972C13.9767 11.8233 13.5185 12.1457 13 12.329C12.7074 12.4324 12.4541 12.6241 12.275 12.8775C12.0959 13.1309 11.9998 13.4337 12 13.744V14.75M12 17.75C11.9258 17.75 11.8533 17.772 11.7917 17.8132C11.73 17.8544 11.6819 17.913 11.6535 17.9815C11.6252 18.05 11.6177 18.1254 11.6322 18.1982C11.6467 18.2709 11.6824 18.3377 11.7348 18.3902C11.7873 18.4426 11.8541 18.4783 11.9268 18.4928C11.9996 18.5073 12.075 18.4998 12.1435 18.4715C12.212 18.4431 12.2706 18.395 12.3118 18.3333C12.353 18.2717 12.375 18.1992 12.375 18.125C12.375 18.0255 12.3355 17.9302 12.2652 17.8598C12.1948 17.7895 12.0995 17.75 12 17.75ZM23.25 12.5C23.25 18.7132 18.2132 23.75 12 23.75C5.7868 23.75 0.75 18.7132 0.75 12.5C0.75 6.2868 5.7868 1.25 12 1.25C18.2132 1.25 23.25 6.2868 23.25 12.5Z" stroke="#00FFCC" stroke-width="1.5" stroke-miterlimit="10" stroke-linecap="round"/>
</g>
<defs>
<clipPath id="clip0_180_81">
<rect width="24" height="24" fill="#00FFCC" transform="translate(0 0.5)"/>
</clipPath>
</defs>
</svg>
