<!DOCTYPE svg PUBLIC "-//W3C//DTD SVG 1.1//EN" "http://www.w3.org/Graphics/SVG/1.1/DTD/svg11.dtd">
<!-- Uploaded to: SVG Repo, www.svgrepo.com, Transformed by: SVG Repo Mixer Tools -->
<svg fill="#ffffff" height="800px" width="800px" version="1.1" id="Layer_1" xmlns="http://www.w3.org/2000/svg" xmlns:xlink="http://www.w3.org/1999/xlink" viewBox="0 0 512.001 512.001" xml:space="preserve" stroke="#ffffff" transform="matrix(1, 0, 0, 1, 0, 0)rotate(270)">
<g id="SVGRepo_bgCarrier" stroke-width="0"/>
<g id="SVGRepo_tracerCarrier" stroke-linecap="round" stroke-linejoin="round"/>
<g id="SVGRepo_iconCarrier"> <g> <g> <path d="M512.001,206.532l-0.151-35.71l-32.176,0.137l0.137-32.176l-35.71-0.151l-0.071,16.712 c-13.216-4.927-27.264-5.21-42.023-0.799c-20.556,6.145-39.636,20.287-59.838,35.26c-27.169,20.137-55.256,40.959-86.058,41.028 h-0.219c-30.8-0.073-58.892-20.892-86.06-41.028c-20.201-14.973-39.281-29.116-59.836-35.26 c-14.758-4.411-28.805-4.128-42.023,0.799l-0.071-16.712l-35.71,0.151l0.137,32.176l-32.176-0.137L0,206.532l20.62,0.087 c-3.65,14.303-2.274,29.79,4.308,45.615c12.708,30.554,45.04,61.371,88.708,84.546c44.479,23.606,94.815,36.59,141.732,36.59 c0.393,0,0.786,0,1.18,0c46.997-0.001,97.338-12.985,141.813-36.59c43.668-23.176,76.001-53.991,88.708-84.546 c6.581-15.827,7.956-31.312,4.307-45.615L512.001,206.532z M454.099,238.522c-9.442,22.7-36.535,47.641-72.477,66.717 c-39.412,20.918-83.804,32.423-125.149,32.423c-0.17,0-0.345-0.001-0.514-0.001c-0.173,0-0.342,0.001-0.513,0.001 c-41.262,0-85.656-11.507-125.067-32.423c-35.941-19.075-63.036-44.017-72.477-66.717c-6.404-15.4-4.192-27.771,6.959-38.935 c14.375-14.389,25.272-13.708,34.907-10.829c14.553,4.349,31.188,16.682,48.801,29.735c7.747,5.742,15.759,11.677,24.1,17.336 l-10.263,21.43l32.207,15.426l9.004-18.8c10.968,5.177,22.523,9.163,34.777,11.185v24.14h35.71v-24.224 c12.22-2.071,23.743-6.097,34.683-11.295l9.097,18.994l32.207-15.426l-10.385-21.682c8.209-5.583,16.096-11.429,23.728-17.085 c17.612-13.055,34.247-25.385,48.801-29.735c9.635-2.882,20.532-3.562,34.907,10.829 C458.293,210.751,460.503,223.123,454.099,238.522z"/> </g> </g> </g>
</svg>